<?xml version="1.0" encoding="UTF-8" standalone="no"?>
<!-- Created with Inkscape (http://www.inkscape.org/) -->

<svg
   xmlns:dc="http://purl.org/dc/elements/1.1/"
   xmlns:cc="http://creativecommons.org/ns#"
   xmlns:rdf="http://www.w3.org/1999/02/22-rdf-syntax-ns#"
   xmlns:svg="http://www.w3.org/2000/svg"
   xmlns="http://www.w3.org/2000/svg"
   xmlns:xlink="http://www.w3.org/1999/xlink"
   xmlns:sodipodi="http://sodipodi.sourceforge.net/DTD/sodipodi-0.dtd"
   xmlns:inkscape="http://www.inkscape.org/namespaces/inkscape"
   width="3368"
   height="2248"
   id="svg2"
   version="1.1"
   inkscape:version="0.48.5 r10040"
   sodipodi:docname="AkkaNetLogoDesign.svg">
  <defs
     id="defs4">
    <linearGradient
       id="linearGradient4163">
      <stop
         id="stop4165"
         offset="0"
         style="stop-color:#000000;stop-opacity:0" />
      <stop
         id="stop4167"
         offset="1"
         style="stop-color:#000000;stop-opacity:0;" />
    </linearGradient>
    <linearGradient
       id="linearGradient4095">
      <stop
         style="stop-color:#000000;stop-opacity:1;"
         offset="0"
         id="stop4097" />
      <stop
         style="stop-color:#000000;stop-opacity:0;"
         offset="1"
         id="stop4099" />
    </linearGradient>
    <linearGradient
       id="linearGradient4444">
      <stop
         id="stop4446"
         offset="0"
         style="stop-color:#000000;stop-opacity:0;" />
      <stop
         id="stop4448"
         offset="1"
         style="stop-color:#000000;stop-opacity:1;" />
    </linearGradient>
    <linearGradient
       id="linearGradient4404">
      <stop
         id="stop4406"
         offset="0"
         style="stop-color:#ffffff;stop-opacity:1;" />
      <stop
         style="stop-color:#ffffff;stop-opacity:0.11764706;"
         offset="0.5"
         id="stop4412" />
      <stop
         style="stop-color:#ffffff;stop-opacity:0;"
         offset="1"
         id="stop4408" />
    </linearGradient>
    <linearGradient
       id="linearGradient4368">
      <stop
         id="stop4370"
         offset="0"
         style="stop-color:#ffffff;stop-opacity:0;" />
      <stop
         style="stop-color:#ffffff;stop-opacity:1;"
         offset="0.67965543"
         id="stop4372" />
      <stop
         id="stop4374"
         offset="1"
         style="stop-color:#ffffff;stop-opacity:0;" />
    </linearGradient>
    <linearGradient
       id="linearGradient4332">
      <stop
         style="stop-color:#000000;stop-opacity:1;"
         offset="0"
         id="stop4334" />
      <stop
         style="stop-color:#000000;stop-opacity:0;"
         offset="1"
         id="stop4336" />
    </linearGradient>
    <linearGradient
       id="linearGradient4136">
      <stop
         style="stop-color:#ffffff;stop-opacity:0;"
         offset="0"
         id="stop4138" />
      <stop
         id="stop4366"
         offset="0.5"
         style="stop-color:#ffffff;stop-opacity:1;" />
      <stop
         style="stop-color:#ffffff;stop-opacity:0;"
         offset="1"
         id="stop4140" />
    </linearGradient>
    <inkscape:path-effect
       is_visible="true"
       id="path-effect3855"
       effect="spiro" />
    <inkscape:path-effect
       is_visible="true"
       id="path-effect3040"
       effect="spiro" />
    <inkscape:path-effect
       effect="spiro"
       id="path-effect5203"
       is_visible="true" />
    <inkscape:path-effect
       effect="spiro"
       id="path-effect5199"
       is_visible="true" />
    <inkscape:path-effect
       effect="spiro"
       id="path-effect5189"
       is_visible="true" />
    <inkscape:path-effect
       effect="spiro"
       id="path-effect5164"
       is_visible="true" />
    <inkscape:path-effect
       is_visible="true"
       id="path-effect5156"
       effect="spiro" />
    <inkscape:path-effect
       effect="spiro"
       id="path-effect5149"
       is_visible="true" />
    <inkscape:path-effect
       effect="spiro"
       id="path-effect5141"
       is_visible="true" />
    <inkscape:path-effect
       is_visible="true"
       id="path-effect5137"
       effect="spiro" />
    <inkscape:path-effect
       effect="spiro"
       id="path-effect5133"
       is_visible="true" />
  </defs>
  <sodipodi:namedview
     id="base"
     pagecolor="#ffffff"
     bordercolor="#666666"
     borderopacity="1.0"
     inkscape:pageopacity="0.0"
     inkscape:pageshadow="2"
     inkscape:zoom="0.35355339"
     inkscape:cx="1685.6324"
     inkscape:cy="1379.4616"
     inkscape:document-units="px"
     inkscape:current-layer="layer10"
     showgrid="false"
     inkscape:object-nodes="true"
     inkscape:snap-smooth-nodes="true"
     inkscape:object-paths="true"
     inkscape:snap-intersection-paths="true"
     inkscape:snap-bbox="true"
     inkscape:bbox-paths="true"
     inkscape:bbox-nodes="true"
     inkscape:snap-bbox-edge-midpoints="true"
     inkscape:snap-bbox-midpoints="true"
     inkscape:snap-object-midpoints="true"
     inkscape:window-width="1920"
     inkscape:window-height="1015"
     inkscape:window-x="-4"
     inkscape:window-y="-4"
     inkscape:window-maximized="1"
     inkscape:snap-global="true"
     showguides="true"
     inkscape:guide-bbox="true"
     inkscape:snap-to-guides="true"
     inkscape:snap-grids="false"
     inkscape:snap-page="true"
     fit-margin-top="0"
     fit-margin-left="0"
     fit-margin-right="0"
     fit-margin-bottom="0" />
  <metadata
     id="metadata7">
    <rdf:RDF>
      <cc:Work
         rdf:about="">
        <dc:format>image/svg+xml</dc:format>
        <dc:type
           rdf:resource="http://purl.org/dc/dcmitype/StillImage" />
        <dc:title></dc:title>
      </cc:Work>
    </rdf:RDF>
  </metadata>
  <g
     inkscape:groupmode="layer"
     id="layer2"
     inkscape:label="Background"
     transform="translate(1412.6805,684.58749)"
     style="display:inline">
    <rect
       style="fill:#424242;fill-opacity:1;stroke:none;display:inline"
       id="rect3981"
       width="808.08295"
       height="1128.1752"
       x="791.6059"
       y="264.25226" />
    <rect
       y="264.25226"
       x="-16.758801"
       height="1128.1752"
       width="808.08295"
       id="rect4126"
       style="fill:#ffffff;fill-opacity:1;stroke:none;display:inline" />
  </g>
  <g
     inkscape:groupmode="layer"
     id="layer3"
     inkscape:label="Behind"
     style="display:inline"
     transform="translate(1412.6805,673.31751)">
    <path
       style="fill:#0386bf;fill-opacity:1;stroke:none;display:inline"
       d="m -331.59556,399.78125 -41.9375,72.65625 11.5625,55.09375 44.8125,-77.625 -14.4375,-50.125 z"
       id="path3978"
       inkscape:connector-curvature="0"
       inkscape:export-filename="C:\Users\2921\Desktop\text3309.png"
       inkscape:export-xdpi="90"
       inkscape:export-ydpi="90" />
    <path
       style="fill:#0386bf;fill-opacity:1;stroke:none;display:inline"
       d="m -248.47056,452.125 -35,60.59375 8.5625,14.8125 69.9688,0 -43.5313,-75.40625 z"
       id="path3987"
       inkscape:connector-curvature="0"
       inkscape:export-filename="C:\Users\2921\Desktop\text3309.png"
       inkscape:export-xdpi="90"
       inkscape:export-ydpi="90" />
    <path
       style="fill:#0386bf;fill-opacity:1;stroke:none;display:inline"
       d="m -414.72056,347.4375 -60.5937,105 0,75.09375 64.1875,-111.1875 -3.5938,-68.90625 z"
       id="path4004"
       inkscape:connector-curvature="0"
       inkscape:export-filename="C:\Users\2921\Desktop\text3309.png"
       inkscape:export-xdpi="90"
       inkscape:export-ydpi="90" />
    <path
       style="fill:#0386bf;fill-opacity:1;stroke:none;display:inline"
       d="m -331.59556,1152.3928 -41.9375,72.6562 11.5625,55.0938 44.8125,-77.625 -14.4375,-50.125 z"
       id="path4270"
       inkscape:connector-curvature="0"
       inkscape:export-filename="C:\Users\2921\Desktop\text3309.png"
       inkscape:export-xdpi="90"
       inkscape:export-ydpi="90" />
    <path
       style="fill:#0386bf;fill-opacity:1;stroke:none;display:inline"
       d="m -248.47056,1204.7365 -35,60.5938 8.5625,14.8125 69.9688,0 -43.5313,-75.4063 z"
       id="path4272"
       inkscape:connector-curvature="0"
       inkscape:export-filename="C:\Users\2921\Desktop\text3309.png"
       inkscape:export-xdpi="90"
       inkscape:export-ydpi="90" />
    <path
       style="fill:#0386bf;fill-opacity:1;stroke:none;display:inline"
       d="m -414.72056,1100.049 -60.5937,105 0,75.0938 64.1875,-111.1875 -3.5938,-68.9063 z"
       id="path4274"
       inkscape:connector-curvature="0"
       inkscape:export-filename="C:\Users\2921\Desktop\text3309.png"
       inkscape:export-xdpi="90"
       inkscape:export-ydpi="90" />
  </g>
  <g
     inkscape:groupmode="layer"
     id="layer5"
     inkscape:label="DarkerShadow"
     style="display:inline"
     transform="translate(1412.6805,673.31751)">
    <path
       style="fill:#026f9f;fill-opacity:1;stroke:none;display:inline"
       d="m -414.72056,347.4375 -60.5937,105 0,24.96875 60.5937,-129.96875 z"
       id="path4047"
       inkscape:connector-curvature="0"
       inkscape:export-filename="C:\Users\2921\Desktop\text3309.png"
       inkscape:export-xdpi="90"
       inkscape:export-ydpi="90" />
    <path
       style="fill:#026f9f;fill-opacity:1;stroke:none;display:inline"
       d="m -331.59556,399.78125 -41.9375,72.65625 2.5,11.9375 39.4375,-84.59375 z"
       id="path4062"
       inkscape:connector-curvature="0"
       inkscape:export-filename="C:\Users\2921\Desktop\text3309.png"
       inkscape:export-xdpi="90"
       inkscape:export-ydpi="90" />
    <path
       style="fill:#026f9f;fill-opacity:1;stroke:none;display:inline"
       d="m -248.47056,452.125 -35,60.59375 3.75,6.46875 31.25,-67.0625 z"
       id="path4067"
       inkscape:connector-curvature="0"
       inkscape:export-filename="C:\Users\2921\Desktop\text3309.png"
       inkscape:export-xdpi="90"
       inkscape:export-ydpi="90" />
  </g>
  <g
     inkscape:label="Front"
     inkscape:groupmode="layer"
     id="layer1"
     style="display:inline"
     transform="translate(1412.6805,673.31751)">
    <path
       style="fill:#31b0f7;fill-opacity:1;stroke:none;display:inline"
       d="m -475.31426,331.21875 -113.3438,196.3125 0.031,0 69.9688,0 103.9375,-180.09375 -60.5937,-16.21875 z"
       id="path3951"
       inkscape:connector-curvature="0"
       inkscape:export-filename="C:\Users\2921\Desktop\text3309.png"
       inkscape:export-xdpi="90"
       inkscape:export-ydpi="90" />
    <path
       style="fill:#31b0f7;fill-opacity:1;stroke:none;display:inline"
       d="m -392.18926,383.53125 -83.125,144 69.9687,0 73.75,-127.75 -60.5937,-16.25 z"
       id="path3955"
       inkscape:connector-curvature="0"
       inkscape:export-filename="C:\Users\2921\Desktop\text3309.png"
       inkscape:export-xdpi="90"
       inkscape:export-ydpi="90" />
    <path
       style="fill:#31b0f7;fill-opacity:1;stroke:none;display:inline"
       d="m -309.06426,435.875 -52.9063,91.65625 69.9687,0 43.5313,-75.40625 -60.5937,-16.25 z"
       id="path3976"
       inkscape:connector-curvature="0"
       inkscape:export-xdpi="90"
       inkscape:export-ydpi="90"
       inkscape:export-filename="C:\Users\2921\Desktop\text3309.png" />
    <path
       style="fill:#ffffff;fill-opacity:1;stroke:none;display:inline"
       d="m 1121.4287,1075.587 -113.3438,196.3125 0.031,0 69.9688,0 43.3437,-75.0937 0,24.9687 0,50.125 69.9688,0 31.8125,-55.0937 2.5,11.9375 9.0625,43.1562 69.9687,0 8.5313,-14.7812 3.75,6.4375 4.8125,8.3437 69.9687,0 -43.5312,-75.4062 -60.5938,-16.25 -8.0937,14.0312 -14.4375,-50.125 -60.5938,-16.25 -18.9375,32.8125 -3.5937,-68.9062 -60.5937,-16.2188 z"
       id="path4060"
       inkscape:connector-curvature="0" />
    <path
       style="fill:#ffffff;fill-opacity:1;stroke:none;display:inline"
       d="m 1121.4312,699.40627 -113.3438,196.3125 0.031,0 69.9688,0 103.9375,-180.09375 -60.5937,-16.21875 z m 60.5937,16.21875 -60.5937,129.96875 0,50.125 69.9687,0 73.75,-127.75 -60.5937,-16.25 -18.9376,32.8125 -3.5937,-68.90625 z m 83.125,52.34375 -39.4375,84.59375 9.0625,43.15625 69.9687,0 43.5313,-75.40625 -60.5937,-16.25 -8.0938,14.03125 -14.4375,-50.125 z m 83.125,52.34375 -31.25,67.0625 4.8125,8.34375 69.9688,0 -43.5313,-75.40625 z"
       id="path4087"
       inkscape:connector-curvature="0" />
    <path
       inkscape:connector-curvature="0"
       id="path4164"
       d="m 288.61967,1075.1076 -113.3436,196.3125 0.031,0 69.9686,0 43.3438,-75.0937 0,24.9687 0,50.125 69.9687,0 31.8125,-55.0937 2.5,11.9375 9.0625,43.1562 69.9688,0 8.5312,-14.7812 3.75,6.4375 4.8125,8.3437 69.9688,0 -43.5313,-75.4062 -60.5937,-16.25 -8.0938,14.0312 -14.4375,-50.125 -60.5937,-16.25 -18.9375,32.8125 -3.5937,-68.9062 -60.5938,-16.2188 z"
       style="fill:#424242;fill-opacity:1;stroke:none;display:inline" />
    <path
       inkscape:connector-curvature="0"
       id="path4166"
       d="m 288.62217,698.92688 -113.3437,196.3125 0.031,0 69.9687,0 103.9375,-180.09375 -60.5937,-16.21875 z m 60.5937,16.21875 -60.5937,129.96875 0,50.125 69.9687,0 73.75,-127.75 -60.5937,-16.25 -18.9376,32.8125 -3.5937,-68.90625 z m 83.125,52.34375 -39.4375,84.59375 9.0625,43.15625 69.9687,0 43.5313,-75.40625 -60.5937,-16.25 -8.0938,14.03125 -14.4375,-50.125 z m 83.125,52.34375 -31.25,67.0625 4.8125,8.34375 69.9688,0 -43.5313,-75.40625 z"
       style="fill:#424242;fill-opacity:1;stroke:none;display:inline" />
    <path
       style="fill:#31b0f7;fill-opacity:1;stroke:none;display:inline"
       d="m -475.31426,1083.8303 -113.3438,196.3125 0.031,0 69.9688,0 103.9375,-180.0938 -60.5937,-16.2187 z"
       id="path4284"
       inkscape:connector-curvature="0"
       inkscape:export-filename="C:\Users\2921\Desktop\text3309.png"
       inkscape:export-xdpi="90"
       inkscape:export-ydpi="90" />
    <path
       style="fill:#31b0f7;fill-opacity:1;stroke:none;display:inline"
       d="m -392.18926,1136.1428 -83.125,144 69.9687,0 73.75,-127.75 -60.5937,-16.25 z"
       id="path4286"
       inkscape:connector-curvature="0"
       inkscape:export-filename="C:\Users\2921\Desktop\text3309.png"
       inkscape:export-xdpi="90"
       inkscape:export-ydpi="90" />
    <path
       style="fill:#31b0f7;fill-opacity:1;stroke:none;display:inline"
       d="m -309.06426,1188.4865 -52.9063,91.6563 69.9687,0 43.5313,-75.4063 -60.5937,-16.25 z"
       id="path4288"
       inkscape:connector-curvature="0"
       inkscape:export-xdpi="90"
       inkscape:export-ydpi="90"
       inkscape:export-filename="C:\Users\2921\Desktop\text3309.png" />
    <path
       inkscape:connector-curvature="0"
       id="path4162"
       d="m 292.86967,330.73936 -113.3436,196.3125 0.031,0 69.9686,0 103.9376,-180.09375 -60.5938,-16.21875 z m 60.5938,16.21875 -60.5938,129.96875 0,43.125 63.8438,-110.59375 -3.25,-62.5 z m 22.5312,36.09375 -83.125,144 69.9688,0 73.75,-127.75 -60.5938,-16.25 z m 60.5938,16.25 -39.4375,84.59375 8,38.03125 44.5312,-77.15625 -13.0937,-45.46875 z m 22.5312,36.09375 -52.9062,91.65625 69.9687,0 43.5313,-75.40625 -60.5938,-16.25 z m 60.5938,16.25 -31.25,67.0625 4.8125,8.34375 69.9687,0 -43.5312,-75.40625 z"
       style="fill:#424242;fill-opacity:1;stroke:none;display:inline" />
    <path
       style="fill:#ffffff;fill-opacity:1;stroke:none;display:inline"
       d="m 1125.6787,331.21875 -113.3438,196.3125 0.031,0 69.9688,0 103.9375,-180.09375 -60.5937,-16.21875 z m 60.5937,16.21875 -60.5937,129.96875 0,43.125 63.8437,-110.59375 -3.25,-62.5 z m 22.5313,36.09375 -83.125,144 69.9687,0 73.75,-127.75 -60.5937,-16.25 z m 60.5937,16.25 -39.4375,84.59375 8,38.03125 44.5313,-77.15625 -13.0938,-45.46875 z m 22.5313,36.09375 -52.9063,91.65625 69.9688,0 43.5312,-75.40625 -60.5937,-16.25 z m 60.5937,16.25 -31.25,67.0625 4.8125,8.34375 69.9688,0 -43.5313,-75.40625 z"
       id="path4006"
       inkscape:connector-curvature="0" />
  </g>
  <g
     inkscape:groupmode="layer"
     id="layer10"
     inkscape:label="Text"
     transform="translate(1412.6805,673.31751)"
     style="display:inline">
    <text
       xml:space="preserve"
       style="font-size:100.39474487px;font-style:normal;font-variant:normal;font-weight:bold;font-stretch:normal;line-height:125%;letter-spacing:0px;word-spacing:0px;fill:#424242;fill-opacity:1;stroke:none;font-family:Roboto;-inkscape-font-specification:Roboto Bold"
       x="-591.99146"
       y="610.82733"
       id="text3309"
       sodipodi:linespacing="125%"
       inkscape:export-filename="C:\Users\2921\Desktop\text3309.png"
       inkscape:export-xdpi="90"
       inkscape:export-ydpi="90"><tspan
         sodipodi:role="line"
         id="tspan3311"
         x="-591.99146"
         y="610.82733">akka.net</tspan></text>
    <text
       sodipodi:linespacing="125%"
       id="text4024"
       y="610.84058"
       x="1009.0012"
       style="font-size:100.39474487px;font-style:normal;font-variant:normal;font-weight:bold;font-stretch:normal;line-height:125%;letter-spacing:0px;word-spacing:0px;fill:#ffffff;fill-opacity:1;stroke:none;font-family:Roboto;-inkscape-font-specification:Roboto Bold"
       xml:space="preserve"><tspan
         y="610.84058"
         x="1009.0012"
         id="tspan4026"
         sodipodi:role="line">akka.net</tspan></text>
    <text
       xml:space="preserve"
       style="font-size:100.39474487px;font-style:normal;font-variant:normal;font-weight:bold;font-stretch:normal;line-height:125%;letter-spacing:0px;word-spacing:0px;fill:#ffffff;fill-opacity:1;stroke:none;font-family:Roboto;-inkscape-font-specification:Roboto Bold"
       x="1009.0012"
       y="610.84058"
       id="text4054"
       sodipodi:linespacing="125%"><tspan
         sodipodi:role="line"
         id="tspan4056"
         x="1009.0012"
         y="610.84058">akka.net</tspan></text>
    <text
       sodipodi:linespacing="125%"
       id="text4080"
       y="1355.2026"
       x="1004.7585"
       style="font-size:100.39474487px;font-style:normal;font-variant:normal;font-weight:bold;font-stretch:normal;line-height:125%;letter-spacing:0px;word-spacing:0px;fill:#ffffff;fill-opacity:1;stroke:none;font-family:Roboto;-inkscape-font-specification:Roboto Bold"
       xml:space="preserve"><tspan
         y="1355.2026"
         x="1004.7585"
         id="tspan4082"
         sodipodi:role="line">akka.net</tspan></text>
    <text
       xml:space="preserve"
       style="font-size:100.39474487px;font-style:normal;font-variant:normal;font-weight:bold;font-stretch:normal;line-height:125%;letter-spacing:0px;word-spacing:0px;fill:#ffffff;fill-opacity:1;stroke:none;font-family:Roboto;-inkscape-font-specification:Roboto Bold"
       x="1004.7586"
       y="979.02191"
       id="text4105"
       sodipodi:linespacing="125%"><tspan
         sodipodi:role="line"
         id="tspan4107"
         x="1004.7586"
         y="979.02191">akka.net</tspan></text>
    <text
       xml:space="preserve"
       style="font-size:100.39474487px;font-style:normal;font-variant:normal;font-weight:bold;font-stretch:normal;line-height:125%;letter-spacing:0px;word-spacing:0px;fill:#424242;fill-opacity:1;stroke:none;font-family:Roboto;-inkscape-font-specification:Roboto Bold"
       x="176.19235"
       y="610.36121"
       id="text4168"
       sodipodi:linespacing="125%"><tspan
         sodipodi:role="line"
         id="tspan4170"
         x="176.19235"
         y="610.36121">akka.net</tspan></text>
    <text
       sodipodi:linespacing="125%"
       id="text4172"
       y="610.36121"
       x="176.19235"
       style="font-size:100.39474487px;font-style:normal;font-variant:normal;font-weight:bold;font-stretch:normal;line-height:125%;letter-spacing:0px;word-spacing:0px;fill:#424242;fill-opacity:1;stroke:none;font-family:Roboto;-inkscape-font-specification:Roboto Bold"
       xml:space="preserve"><tspan
         y="610.36121"
         x="176.19235"
         id="tspan4174"
         sodipodi:role="line">akka.net</tspan></text>
    <text
       xml:space="preserve"
       style="font-size:100.39474487px;font-style:normal;font-variant:normal;font-weight:bold;font-stretch:normal;line-height:125%;letter-spacing:0px;word-spacing:0px;fill:#424242;fill-opacity:1;stroke:none;font-family:Roboto;-inkscape-font-specification:Roboto Bold"
       x="171.94968"
       y="1354.7233"
       id="text4176"
       sodipodi:linespacing="125%"><tspan
         sodipodi:role="line"
         id="tspan4178"
         x="171.94968"
         y="1354.7233">akka.net</tspan></text>
    <text
       sodipodi:linespacing="125%"
       id="text4180"
       y="978.54254"
       x="171.94968"
       style="font-size:100.39474487px;font-style:normal;font-variant:normal;font-weight:bold;font-stretch:normal;line-height:125%;letter-spacing:0px;word-spacing:0px;fill:#424242;fill-opacity:1;stroke:none;font-family:Roboto;-inkscape-font-specification:Roboto Bold"
       xml:space="preserve"><tspan
         y="978.54254"
         x="171.94968"
         id="tspan4182"
         sodipodi:role="line">akka.net</tspan></text>
    <text
       xml:space="preserve"
       style="font-size:100.39474487px;font-style:normal;font-variant:normal;font-weight:bold;font-stretch:normal;line-height:125%;letter-spacing:0px;word-spacing:0px;fill:#424242;fill-opacity:1;stroke:none;font-family:Roboto;-inkscape-font-specification:Roboto Bold"
       x="-591.99146"
       y="1363.4388"
       id="text4290"
       sodipodi:linespacing="125%"
       inkscape:export-filename="C:\Users\2921\Desktop\text3309.png"
       inkscape:export-xdpi="90"
       inkscape:export-ydpi="90"><tspan
         sodipodi:role="line"
         id="tspan4292"
         x="-591.99146"
         y="1363.4388">akka.net</tspan></text>
  </g>
  <g
     inkscape:groupmode="layer"
     id="layer4"
     inkscape:label="Info"
     style="display:inline">
    <text
       sodipodi:linespacing="125%"
       id="text4001"
       y="304.7836"
       x="1395.9218"
       style="font-size:32px;font-style:normal;font-variant:normal;font-weight:300;font-stretch:normal;line-height:125%;letter-spacing:0px;word-spacing:0px;fill:#333333;fill-opacity:1;stroke:none;display:inline;font-family:Roboto;-inkscape-font-specification:Roboto"
       xml:space="preserve"><tspan
         id="tspan4007"
         y="304.7836"
         x="1395.9218"
         sodipodi:role="line">The font used is the new <tspan
   style="font-weight:bold;fill:#333333"
   id="tspan4191">Roboto</tspan> font.</tspan><tspan
         y="344.7836"
         x="1395.9218"
         sodipodi:role="line"
         id="tspan4312"><tspan
           id="tspan4399"
           style="font-size:32px;font-weight:300;fill:#333333">Font weight is <tspan
   style="font-size:32px;font-weight:bold;fill:#333333"
   id="tspan4016">bold</tspan> or </tspan><tspan
           id="tspan4403"
           style="font-size:32px;font-weight:bold;fill:#333333">600</tspan></tspan></text>
    <path
       style="fill:none;stroke:#5d5d5d;stroke-width:0.86752617;stroke-linecap:butt;stroke-linejoin:miter;stroke-miterlimit:4;stroke-opacity:1;stroke-dasharray:none;display:inline"
       d="m 266.92879,1324.0868 2745.00701,0"
       id="path3148"
       inkscape:connector-curvature="0" />
    <path
       inkscape:connector-curvature="0"
       id="path3924"
       d="m 266.9287,1700.334 2745.007,0"
       style="fill:none;stroke:#5d5d5d;stroke-width:0.86752617;stroke-linecap:butt;stroke-linejoin:miter;stroke-miterlimit:4;stroke-opacity:1;stroke-dasharray:none;display:inline" />
    <path
       inkscape:connector-curvature="0"
       id="path3928"
       d="m 2204.2864,2075.8611 0,-1196.60023"
       style="fill:none;stroke:#5d5d5d;stroke-width:0.57272714;stroke-linecap:butt;stroke-linejoin:miter;stroke-miterlimit:4;stroke-opacity:1;stroke-dasharray:none;display:inline" />
    <path
       style="fill:none;stroke:#5d5d5d;stroke-width:0.57272714;stroke-linecap:butt;stroke-linejoin:miter;stroke-miterlimit:4;stroke-opacity:1;stroke-dasharray:none;display:inline"
       d="m 1395.9217,2075.8611 0,-1196.60024"
       id="path3932"
       inkscape:connector-curvature="0" />
    <path
       style="fill:none;stroke:#5d5d5d;stroke-width:0.57272714;stroke-linecap:butt;stroke-linejoin:miter;stroke-miterlimit:4;stroke-opacity:1;stroke-dasharray:none;display:inline"
       d="m 586.42136,2075.8611 0,-1196.60023"
       id="path3944"
       inkscape:connector-curvature="0" />
    <path
       inkscape:connector-curvature="0"
       id="path3956"
       d="m 266.92888,948.83976 2745.00702,0"
       style="fill:none;stroke:#5d5d5d;stroke-width:0.86752617;stroke-linecap:butt;stroke-linejoin:miter;stroke-miterlimit:4;stroke-opacity:1;stroke-dasharray:none;display:inline" />
    <text
       inkscape:export-ydpi="90"
       inkscape:export-xdpi="90"
       inkscape:export-filename="C:\Users\2921\Desktop\text3309.png"
       sodipodi:linespacing="125%"
       id="text3285-4"
       y="483.38406"
       x="2549.9141"
       style="font-size:100.39474487px;font-style:normal;font-variant:normal;font-weight:bold;font-stretch:normal;line-height:125%;letter-spacing:0px;word-spacing:0px;fill:#00ff00;fill-opacity:1;stroke:none;display:inline;font-family:Roboto;-inkscape-font-specification:Roboto Bold"
       xml:space="preserve"><tspan
         y="483.38406"
         x="2549.9141"
         id="tspan3287-0"
         sodipodi:role="line">Kkij!?679</tspan></text>
    <g
       style="font-size:100.39474487px;font-style:normal;font-variant:normal;font-weight:bold;font-stretch:normal;line-height:125%;letter-spacing:0px;word-spacing:0px;fill:#666666;fill-opacity:1;stroke:none;display:inline;font-family:Roboto;-inkscape-font-specification:Roboto Bold"
       id="text3191"
       transform="translate(3390.1223,912.80332)">
      <path
         d="m -811.48239,-458.04744 -7.64725,8.23551 0,20.39268 -14.70626,0 0,-71.37439 14.70626,0 0,32.35378 6.47075,-8.87278 18.18674,-23.481 18.08871,0 -25.34379,31.7165 26.0791,39.65789 -17.50045,0 z"
         id="path3196"
         style="fill:#666666"
         inkscape:connector-curvature="0" />
      <path
         d="m -751.77496,-450.69431 -5.09817,5.09817 0,16.17689 -14.16704,0 0,-75.29606 14.16704,0 0,41.71676 2.74516,-3.5295 13.57879,-15.93178 17.01024,0 -19.16716,22.10841 20.83387,30.93217 -16.27493,0 z"
         id="path3198"
         style="fill:#666666"
         inkscape:connector-curvature="0" />
      <path
         d="m -702.36193,-429.41925 -14.21605,0 0,-53.04058 14.21605,0 z m -15.0494,-66.76643 c -10e-6,-2.12417 0.71079,-3.87258 2.1324,-5.24523 1.4216,-1.37251 3.35792,-2.0588 5.80898,-2.05888 1.20917,8e-5 2.30396,0.17982 3.2844,0.53923 0.9804,0.35956 1.81375,0.86611 2.50006,1.51965 0.68627,0.65368 1.21733,1.42985 1.59318,2.32849 0.3758,0.89879 0.56372,1.87103 0.56374,2.91674 -2e-5,1.07853 -0.18794,2.06711 -0.56374,2.96577 -0.37585,0.89877 -0.90691,1.67494 -1.59318,2.32849 -0.68631,0.65367 -1.51966,1.16022 -2.50006,1.51964 -0.98044,0.35955 -2.07523,0.53929 -3.2844,0.53923 -1.2092,6e-5 -2.30399,-0.17968 -3.2844,-0.53923 -0.98043,-0.35942 -1.81378,-0.86597 -2.50006,-1.51964 -0.6863,-0.65355 -1.21736,-1.42972 -1.59318,-2.32849 -0.37584,-0.89866 -0.56375,-1.88724 -0.56374,-2.96577 z"
         id="path3200"
         style="fill:#666666"
         inkscape:connector-curvature="0" />
      <path
         d="m -675.64555,-482.45983 0,55.98183 c -2e-5,2.97393 -0.40852,5.61288 -1.22552,7.91687 -0.81703,2.30397 -1.99353,4.24029 -3.5295,5.80898 -1.536,1.56865 -3.4233,2.75332 -5.66191,3.55401 -2.23863,0.80065 -4.79588,1.20099 -7.67177,1.20101 -1.1765,-2e-5 -2.34483,-0.0654 -3.50499,-0.19608 -1.16016,-0.13075 -2.32849,-0.34317 -3.50499,-0.63727 l 0,-11.22578 c 0.75165,0.13071 1.49514,0.23692 2.23045,0.31863 0.73531,0.0817 1.47879,0.12254 2.23045,0.12255 2.05887,-1e-5 3.64388,-0.54741 4.75502,-1.6422 1.11114,-1.0948 1.6667,-2.83504 1.66671,-5.22072 l 0,-55.98183 z m -15.34353,-13.72585 c 0,-2.12417 0.7108,-3.87258 2.13241,-5.24523 1.4216,-1.37251 3.35792,-2.0588 5.80897,-2.05888 2.45103,8e-5 4.38735,0.68637 5.80898,2.05888 1.42158,1.37265 2.13238,3.12106 2.1324,5.24523 -2e-5,1.07853 -0.18793,2.06711 -0.56374,2.96577 -0.37584,0.89877 -0.9069,1.67494 -1.59318,2.32849 -0.68631,0.65367 -1.51966,1.16022 -2.50006,1.51964 -0.98043,0.35955 -2.07523,0.53929 -3.2844,0.53923 -1.20919,6e-5 -2.30399,-0.17968 -3.2844,-0.53923 -0.98042,-0.35942 -1.81378,-0.86597 -2.50006,-1.51964 -0.6863,-0.65355 -1.21736,-1.42972 -1.59318,-2.32849 -0.37583,-0.89866 -0.56374,-1.88724 -0.56374,-2.96577 z"
         id="path3202"
         style="fill:#666666"
         inkscape:connector-curvature="0" />
      <path
         d="m -650.1547,-451.33158 -11.765,0 -1.66671,-49.46206 15.09842,0 z m -13.77486,15.24549 c -10e-6,-1.07845 0.18791,-2.07521 0.56374,-2.99027 0.37582,-0.91505 0.90688,-1.70755 1.59318,-2.37751 0.68628,-0.66994 1.51147,-1.19283 2.47555,-1.56867 0.96407,-0.37582 2.0507,-0.56373 3.25989,-0.56374 1.20917,10e-6 2.30396,0.18792 3.2844,0.56374 0.9804,0.37584 1.81375,0.89873 2.50006,1.56867 0.68627,0.66996 1.21733,1.46246 1.59318,2.37751 0.37581,0.91506 0.56372,1.91182 0.56374,2.99027 -2e-5,1.07847 -0.18793,2.06705 -0.56374,2.96576 -0.37585,0.89872 -0.90691,1.68306 -1.59318,2.35301 -0.68631,0.66995 -1.51966,1.19284 -2.50006,1.56866 -0.98044,0.37583 -2.07523,0.56374 -3.2844,0.56374 -1.20919,0 -2.29582,-0.18791 -3.25989,-0.56374 -0.96408,-0.37582 -1.78927,-0.89871 -2.47555,-1.56866 -0.6863,-0.66995 -1.21736,-1.45429 -1.59318,-2.35301 -0.37583,-0.89871 -0.56375,-1.88729 -0.56374,-2.96576 z"
         id="path3204"
         style="fill:#666666"
         inkscape:connector-curvature="0" />
      <path
         d="m -625.74231,-451.33158 c -10e-6,-2.22226 0.12254,-4.2076 0.36766,-5.95604 0.24509,-1.74838 0.66176,-3.35789 1.25003,-4.82855 0.58823,-1.47059 1.35623,-2.83501 2.30398,-4.09324 0.94772,-1.25817 2.12422,-2.52454 3.52951,-3.79912 1.11111,-0.98038 2.14055,-1.93628 3.08831,-2.86772 0.94771,-0.93136 1.76472,-1.86275 2.45105,-2.79419 0.68626,-0.93135 1.21732,-1.91177 1.59317,-2.94126 0.3758,-1.02938 0.56371,-2.13235 0.56374,-3.3089 -3e-5,-2.7778 -0.64547,-4.85301 -1.93632,-6.22565 -1.29091,-1.37253 -3.19455,-2.05882 -5.71093,-2.05888 -1.01312,6e-5 -2.00171,0.15529 -2.96577,0.4657 -0.96409,0.31052 -1.82196,0.8089 -2.57359,1.49513 -0.75167,0.68635 -1.35626,1.56056 -1.81377,2.62262 -0.45755,1.06217 -0.70265,2.32855 -0.73532,3.79912 l -14.21605,0 c 0.0327,-3.43141 0.63727,-6.39717 1.81377,-8.89729 1.1765,-2.5 2.76151,-4.56705 4.75503,-6.20114 1.9935,-1.63396 4.33833,-2.85131 7.03449,-3.65206 2.69613,-0.8006 5.59653,-1.20093 8.70121,-1.20101 3.43143,8e-5 6.5034,0.42492 9.21592,1.27455 2.71245,0.84976 5.00009,2.08345 6.86292,3.70107 1.86275,1.61776 3.29253,3.62761 4.28933,6.02957 0.99671,2.40208 1.49509,5.13908 1.49514,8.21099 -5e-5,2.15697 -0.32686,4.10147 -0.98042,5.83349 -0.65366,1.73211 -1.53603,3.36614 -2.64713,4.90209 -1.11118,1.53602 -2.38572,3.01482 -3.82363,4.43638 -1.43798,1.42165 -2.95762,2.86776 -4.55894,4.33835 -0.91509,0.84973 -1.67491,1.69942 -2.27947,2.54909 -0.60462,0.84972 -1.09483,1.74027 -1.47062,2.67163 -0.37586,0.93143 -0.63731,1.92819 -0.78434,2.99028 -0.14709,1.06214 -0.23696,2.23047 -0.26961,3.50499 z m -1.4216,15.04941 c -2e-5,-1.07845 0.1879,-2.07521 0.56374,-2.99028 0.37581,-0.91504 0.90687,-1.70754 1.59318,-2.37751 0.68627,-0.66994 1.51963,-1.201 2.50006,-1.59318 0.9804,-0.39215 2.0752,-0.58823 3.2844,-0.58825 1.20916,2e-5 2.30396,0.1961 3.2844,0.58825 0.98039,0.39218 1.81374,0.92324 2.50006,1.59318 0.68627,0.66997 1.21732,1.46247 1.59318,2.37751 0.3758,0.91507 0.56371,1.91183 0.56374,2.99028 -3e-5,1.04578 -0.18794,2.0262 -0.56374,2.94125 -0.37586,0.91506 -0.90691,1.70756 -1.59318,2.37751 -0.68632,0.66995 -1.51967,1.19284 -2.50006,1.56867 -0.98044,0.37583 -2.07524,0.56374 -3.2844,0.56374 -1.2092,0 -2.304,-0.18791 -3.2844,-0.56374 -0.98043,-0.37583 -1.81379,-0.89872 -2.50006,-1.56867 -0.68631,-0.66995 -1.21737,-1.46245 -1.59318,-2.37751 -0.37584,-0.91505 -0.56376,-1.89547 -0.56374,-2.94125 z"
         id="path3206"
         style="fill:#666666"
         inkscape:connector-curvature="0" />
      <path
         d="m -549.46582,-501.52895 0,11.66696 -0.83336,0 c -3.36614,7e-5 -6.38909,0.43308 -9.06886,1.29906 -2.67984,0.86609 -4.99198,2.09978 -6.93645,3.70107 -1.94452,1.60141 -3.51319,3.5459 -4.706,5.83349 -1.19287,2.28769 -1.98537,4.85311 -2.37752,7.69627 1.73205,-1.7647 3.7991,-3.17814 6.20114,-4.2403 2.402,-1.06207 5.13899,-1.59313 8.211,-1.59318 3.36606,5e-5 6.31548,0.64549 8.84827,1.93633 2.5327,1.29092 4.64876,3.03933 6.3482,5.24523 1.69934,2.20598 2.97388,4.7714 3.82363,7.69628 0.84964,2.92494 1.27449,6.03776 1.27454,9.33847 -5e-5,3.46416 -0.56379,6.69137 -1.69122,9.68162 -1.12753,2.99029 -2.73705,5.58022 -4.82856,7.76981 -2.0916,2.1896 -4.61617,3.9135 -7.57372,5.1717 -2.95763,1.25821 -6.26654,1.88731 -9.92673,1.88731 -3.82365,0 -7.28779,-0.69447 -10.39242,-2.08339 -3.10467,-1.38892 -5.74363,-3.33341 -7.91687,-5.83348 -2.17327,-2.50006 -3.85632,-5.49033 -5.04915,-8.97082 -1.19285,-3.48047 -1.78927,-7.31226 -1.78926,-11.4954 l 0,-5.49034 c -10e-6,-5.75174 0.817,-11.02965 2.45104,-15.83374 1.63402,-4.80399 4.00336,-8.93808 7.10803,-12.40228 3.10463,-3.46407 6.91192,-6.16022 11.42186,-8.08844 4.50989,-1.92808 9.64073,-2.89216 15.39255,-2.89223 z m -13.82389,35.73621 c -1.27457,4e-5 -2.45107,0.17161 -3.5295,0.51472 -1.07848,0.34318 -2.0589,0.81705 -2.94125,1.42161 -0.8824,0.60462 -1.65856,1.30725 -2.32849,2.10789 -0.66998,0.80071 -1.20103,1.64223 -1.59318,2.52458 l 0,4.26482 c -2e-5,2.51642 0.26142,4.72236 0.78433,6.61781 0.52287,1.89549 1.25001,3.47233 2.18143,4.73052 0.93137,1.25821 2.05885,2.19778 3.38244,2.8187 1.32354,0.62094 2.76965,0.9314 4.33835,0.93139 1.53595,1e-5 2.93305,-0.32679 4.19128,-0.98041 1.25817,-0.6536 2.32846,-1.55232 3.21087,-2.69615 0.88234,-1.14381 1.56863,-2.50822 2.05888,-4.09324 0.49017,-1.58499 0.73527,-3.30889 0.73531,-5.17171 -4e-5,-1.89544 -0.23697,-3.63568 -0.7108,-5.22072 -0.47391,-1.58498 -1.16837,-2.95756 -2.08339,-4.11775 -0.91509,-1.16013 -2.01806,-2.05884 -3.30891,-2.69615 -1.29091,-0.63724 -2.75337,-0.95587 -4.38737,-0.95591 z"
         id="path3208"
         style="fill:#666666"
         inkscape:connector-curvature="0" />
      <path
         d="m -481.71899,-492.85226 -27.59875,63.43301 -14.95137,0 27.64777,-59.90351 -35.49111,0 0,-11.47088 50.39346,0 z"
         id="path3210"
         style="fill:#666666"
         inkscape:connector-curvature="0" />
      <path
         d="m -461.62042,-440.54699 c 3.59484,10e-6 6.71584,-0.38398 9.36299,-1.15199 2.64709,-0.76798 4.87754,-1.88729 6.69134,-3.35793 1.81374,-1.47061 3.21901,-3.28438 4.2158,-5.44132 0.99672,-2.15689 1.62582,-4.64061 1.8873,-7.45117 -1.69942,1.66674 -3.65209,2.9903 -5.85799,3.97069 -2.20597,0.98044 -4.56714,1.47065 -7.08352,1.47063 -3.36612,2e-5 -6.34822,-0.61274 -8.94631,-1.83828 -2.59812,-1.2255 -4.77954,-2.90855 -6.54428,-5.04915 -1.76476,-2.14055 -3.09649,-4.67329 -3.9952,-7.59824 -0.89872,-2.92487 -1.34808,-6.10305 -1.34808,-9.53456 0,-3.46409 0.56374,-6.72397 1.69122,-9.77966 1.12748,-3.05558 2.72882,-5.72721 4.80405,-8.01491 2.0752,-2.28758 4.5916,-4.10135 7.54921,-5.44132 2.95757,-1.33983 6.26648,-2.00978 9.92673,-2.00986 3.66019,8e-5 6.98544,0.70271 9.97575,2.1079 2.99023,1.40533 5.53114,3.38251 7.62274,5.93153 2.09151,2.54914 3.7092,5.61294 4.85307,9.19141 1.14377,3.57857 1.71568,7.54109 1.71573,11.88756 l 0,4.95111 c -5e-5,5.84986 -0.75171,11.16861 -2.25496,15.95629 -1.50336,4.78773 -3.76649,8.88913 -6.78939,12.30424 -3.023,3.41513 -6.80577,6.05408 -11.34833,7.91687 -4.54263,1.8628 -9.86956,2.79419 -15.98081,2.79419 l -1.12748,0 0,-11.81403 z m 12.6964,-22.7947 c 2.28761,3e-5 4.25662,-0.58822 5.90702,-1.76475 1.65033,-1.17647 2.90036,-2.59807 3.7501,-4.26482 l 0,-5.83348 c -4e-5,-2.54904 -0.25332,-4.77132 -0.75983,-6.66684 -0.50658,-1.89542 -1.21739,-3.47226 -2.13241,-4.73052 -0.91509,-1.25814 -1.98537,-2.19771 -3.21086,-2.8187 -1.22555,-0.62087 -2.55729,-0.93133 -3.9952,-0.93139 -1.5687,6e-5 -2.95762,0.38405 -4.16678,1.15199 -1.2092,0.76805 -2.23047,1.78932 -3.0638,3.0638 -0.83338,1.2746 -1.46248,2.72888 -1.88731,4.36286 -0.42486,1.63408 -0.63728,3.33347 -0.63727,5.09817 -10e-6,1.83016 0.21241,3.54589 0.63727,5.14719 0.42483,1.60139 1.05393,3.01482 1.88731,4.24031 0.83333,1.22555 1.88728,2.18963 3.16184,2.89223 1.27452,0.70266 2.77783,1.05398 4.50992,1.05395 z"
         id="path3212"
         style="fill:#666666"
         inkscape:connector-curvature="0" />
    </g>
    <path
       style="fill:none;stroke:#5d5d5d;stroke-width:0.57272714;stroke-linecap:butt;stroke-linejoin:miter;stroke-miterlimit:4;stroke-opacity:1;stroke-dasharray:none;display:inline"
       d="m 3012.651,2075.8611 0,-1196.60022"
       id="path4105"
       inkscape:connector-curvature="0" />
    <path
       style="fill:none;stroke:#5d5d5d;stroke-width:0.86752617;stroke-linecap:butt;stroke-linejoin:miter;stroke-miterlimit:4;stroke-opacity:1;stroke-dasharray:none;display:inline"
       d="m 266.92861,2076.5812 2745.00699,0"
       id="path4111"
       inkscape:connector-curvature="0" />
    <text
       sodipodi:linespacing="125%"
       id="text4169"
       y="304.7836"
       x="2203.7864"
       style="font-size:32px;font-style:normal;font-variant:normal;font-weight:300;font-stretch:normal;line-height:125%;letter-spacing:0px;word-spacing:0px;fill:#333333;fill-opacity:1;stroke:none;display:inline;font-family:Roboto;-inkscape-font-specification:Roboto"
       xml:space="preserve"><tspan
         id="tspan4175"
         y="304.7836"
         x="2203.7864"
         sodipodi:role="line">If you see any <tspan
   style="font-weight:bold;fill:#333333"
   id="tspan4193">green</tspan> characters below the grey ones,</tspan><tspan
         y="344.7836"
         x="2203.7864"
         sodipodi:role="line"
         id="tspan4199">you're either missing, or have the old version of Roboto</tspan></text>
    <text
       xml:space="preserve"
       style="font-size:40px;font-style:normal;font-variant:normal;font-weight:300;font-stretch:normal;line-height:125%;letter-spacing:0px;word-spacing:0px;fill:#000000;fill-opacity:1;stroke:none;display:inline;font-family:Roboto;-inkscape-font-specification:Roboto"
       x="265.24921"
       y="196.73981"
       id="text4138"
       sodipodi:linespacing="125%"><tspan
         sodipodi:role="line"
         id="tspan4140"
         x="265.24921"
         y="196.73981"
         style="font-size:40px;font-weight:bold">Colors</tspan></text>
    <text
       sodipodi:linespacing="125%"
       id="text4164"
       y="196.73981"
       x="1393.3827"
       style="font-size:40px;font-style:normal;font-variant:normal;font-weight:300;font-stretch:normal;line-height:125%;letter-spacing:0px;word-spacing:0px;fill:#000000;fill-opacity:1;stroke:none;display:inline;font-family:Roboto;-inkscape-font-specification:Roboto"
       xml:space="preserve"><tspan
         style="font-size:40px;font-weight:bold"
         y="196.73981"
         x="1393.3827"
         id="tspan4166"
         sodipodi:role="line">Font</tspan></text>
    <rect
       style="opacity:0.53508768;fill:#026f9f;fill-opacity:1;stroke:none;display:inline"
       id="rect4150"
       width="79.195961"
       height="79.195961"
       x="562.52692"
       y="253.13046" />
    <rect
       y="369.09598"
       x="562.52692"
       height="79.195961"
       width="79.195961"
       id="rect4158"
       style="opacity:0.53508768;fill:#424242;fill-opacity:1;stroke:none;display:inline" />
    <rect
       style="opacity:0.53508768;fill:#31b0f7;fill-opacity:1;stroke:none;display:inline"
       id="rect4130"
       width="79.195961"
       height="79.195961"
       x="266.92889"
       y="253.13046" />
    <rect
       y="369.09598"
       x="266.92889"
       height="79.195961"
       width="79.195961"
       id="rect4142"
       style="opacity:0.53508768;fill:#0386bf;fill-opacity:1;stroke:none;display:inline" />
    <text
       sodipodi:linespacing="125%"
       id="text4132"
       y="304.73627"
       x="378.74994"
       style="font-size:32px;font-style:normal;font-variant:normal;font-weight:300;font-stretch:normal;line-height:125%;letter-spacing:0px;word-spacing:0px;fill:#333333;fill-opacity:1;stroke:none;display:inline;font-family:Roboto;-inkscape-font-specification:Roboto"
       xml:space="preserve"><tspan
         y="304.73627"
         x="378.74994"
         id="tspan4134"
         sodipodi:role="line">#31b0f7</tspan></text>
    <text
       xml:space="preserve"
       style="font-size:32px;font-style:normal;font-variant:normal;font-weight:300;font-stretch:normal;line-height:125%;letter-spacing:0px;word-spacing:0px;fill:#333333;fill-opacity:1;stroke:none;display:inline;font-family:Roboto;-inkscape-font-specification:Roboto"
       x="378.74994"
       y="420.70178"
       id="text4144"
       sodipodi:linespacing="125%"><tspan
         sodipodi:role="line"
         id="tspan4146"
         x="378.74994"
         y="420.70178">#0386bf</tspan></text>
    <text
       sodipodi:linespacing="125%"
       id="text4152"
       y="304.73627"
       x="674.34802"
       style="font-size:32px;font-style:normal;font-variant:normal;font-weight:300;font-stretch:normal;line-height:125%;letter-spacing:0px;word-spacing:0px;fill:#333333;fill-opacity:1;stroke:none;display:inline;font-family:Roboto;-inkscape-font-specification:Roboto"
       xml:space="preserve"><tspan
         y="304.73627"
         x="674.34802"
         id="tspan4154"
         sodipodi:role="line">#026f9f</tspan></text>
    <text
       xml:space="preserve"
       style="font-size:32px;font-style:normal;font-variant:normal;font-weight:300;font-stretch:normal;line-height:125%;letter-spacing:0px;word-spacing:0px;fill:#333333;fill-opacity:1;stroke:none;display:inline;font-family:Roboto;-inkscape-font-specification:Roboto"
       x="674.34802"
       y="420.70178"
       id="text4160"
       sodipodi:linespacing="125%"><tspan
         sodipodi:role="line"
         id="tspan4162"
         x="674.34802"
         y="420.70178">#424242</tspan></text>
    <text
       sodipodi:linespacing="125%"
       id="text4081"
       y="917.74976"
       x="788.013"
       style="font-size:32px;font-style:normal;font-variant:normal;font-weight:300;font-stretch:normal;line-height:125%;letter-spacing:0px;word-spacing:0px;fill:#000000;fill-opacity:1;stroke:none;display:inline;font-family:Roboto;-inkscape-font-specification:Roboto"
       xml:space="preserve"><tspan
         y="917.74976"
         x="788.013"
         id="tspan4083"
         sodipodi:role="line"><tspan
           id="tspan4085"
           style="font-size:32px;font-weight:bold">Normal  |  White background</tspan></tspan></text>
    <text
       xml:space="preserve"
       style="font-size:32px;font-style:normal;font-variant:normal;font-weight:300;font-stretch:normal;line-height:125%;letter-spacing:0px;word-spacing:0px;fill:#000000;fill-opacity:1;stroke:none;display:inline;font-family:Roboto;-inkscape-font-specification:Roboto"
       x="1558.0334"
       y="917.74976"
       id="text4093"
       sodipodi:linespacing="125%"><tspan
         sodipodi:role="line"
         id="tspan4095"
         x="1558.0334"
         y="917.74976"><tspan
           style="font-size:32px;font-weight:bold"
           id="tspan4097">Monochrome  |  Light background</tspan></tspan></text>
    <text
       sodipodi:linespacing="125%"
       id="text4099"
       y="917.74976"
       x="2606.2966"
       style="font-size:32px;font-style:normal;font-variant:normal;font-weight:300;font-stretch:normal;text-align:center;line-height:125%;letter-spacing:0px;word-spacing:0px;text-anchor:middle;fill:#000000;fill-opacity:1;stroke:none;display:inline;font-family:Roboto;-inkscape-font-specification:Roboto"
       xml:space="preserve"><tspan
         y="917.74976"
         x="2606.2966"
         id="tspan4101"
         sodipodi:role="line"><tspan
           id="tspan4103"
           style="font-size:32px;font-weight:bold;text-align:center;text-anchor:middle">Monochrome Inverted |  Dark background</tspan></tspan></text>
    <text
       xml:space="preserve"
       style="font-size:32px;font-style:normal;font-variant:normal;font-weight:300;font-stretch:normal;line-height:125%;letter-spacing:0px;word-spacing:0px;fill:#000000;fill-opacity:1;stroke:none;display:inline;font-family:Roboto;-inkscape-font-specification:Roboto"
       x="292.01437"
       y="1148.5239"
       id="text4049"
       sodipodi:linespacing="125%"><tspan
         sodipodi:role="line"
         id="tspan4051"
         x="292.01437"
         y="1148.5239">Size: <tspan
   style="font-size:32px;font-weight:bold"
   id="tspan4053">Normal</tspan></tspan></text>
    <text
       sodipodi:linespacing="125%"
       id="text4055"
       y="1523.771"
       x="292.01437"
       style="font-size:32px;font-style:normal;font-variant:normal;font-weight:300;font-stretch:normal;line-height:125%;letter-spacing:0px;word-spacing:0px;fill:#000000;fill-opacity:1;stroke:none;display:inline;font-family:Roboto;-inkscape-font-specification:Roboto"
       xml:space="preserve"><tspan
         y="1523.771"
         x="292.01437"
         id="tspan4057"
         sodipodi:role="line">Size: <tspan
   id="tspan4059"
   style="font-size:32px;font-weight:bold">Small</tspan></tspan></text>
    <text
       xml:space="preserve"
       style="font-size:32px;font-style:normal;font-variant:normal;font-weight:300;font-stretch:normal;line-height:125%;letter-spacing:0px;word-spacing:0px;fill:#000000;fill-opacity:1;stroke:none;display:inline;font-family:Roboto;-inkscape-font-specification:Roboto"
       x="292.01437"
       y="1900.0182"
       id="text4074"
       sodipodi:linespacing="125%"><tspan
         sodipodi:role="line"
         id="tspan4076"
         x="292.01437"
         y="1900.0182">Size: <tspan
   style="font-size:32px;font-weight:bold"
   id="tspan4078">Extra Small</tspan></tspan></text>
    <a
       id="a4405"
       xlink:href="http://www.google.com/design/spec/style/typography.html"
       xlink:title="Download Roboto"
       style="fill:#0000ff"
       transform="translate(-2.4375,-75.629429)">
      <text
         sodipodi:linespacing="125%"
         id="text4318"
         y="558.78363"
         x="1395.9218"
         style="font-size:32px;font-style:normal;font-variant:normal;font-weight:300;font-stretch:normal;line-height:125%;letter-spacing:0px;word-spacing:0px;fill:#0000ff;fill-opacity:1;stroke:none;display:inline;font-family:Roboto;-inkscape-font-specification:Roboto"
         xml:space="preserve"><tspan
           y="558.78363"
           x="1395.9218"
           sodipodi:role="line"
           id="tspan4338">http://www.google.com/design/spec/style/typography.html</tspan></text>
    </a>
  </g>
</svg>
