<?xml version="1.0" encoding="UTF-8" standalone="no"?>
<!-- Created with Inkscape (http://www.inkscape.org/) -->

<svg
   xmlns:dc="http://purl.org/dc/elements/1.1/"
   xmlns:cc="http://creativecommons.org/ns#"
   xmlns:rdf="http://www.w3.org/1999/02/22-rdf-syntax-ns#"
   xmlns:svg="http://www.w3.org/2000/svg"
   xmlns="http://www.w3.org/2000/svg"
   xmlns:sodipodi="http://sodipodi.sourceforge.net/DTD/sodipodi-0.dtd"
   xmlns:inkscape="http://www.inkscape.org/namespaces/inkscape"
   width="383.79141"
   height="280.59607"
   id="svg4850"
   version="1.1"
   inkscape:version="0.48.5 r10040"
   sodipodi:docname="New document 22">
  <defs
     id="defs4852" />
  <sodipodi:namedview
     id="base"
     pagecolor="#ffffff"
     bordercolor="#666666"
     borderopacity="1.0"
     inkscape:pageopacity="0.0"
     inkscape:pageshadow="2"
     inkscape:zoom="0.35"
     inkscape:cx="191.8957"
     inkscape:cy="140.29804"
     inkscape:document-units="px"
     inkscape:current-layer="layer1"
     showgrid="false"
     fit-margin-top="0"
     fit-margin-left="0"
     fit-margin-right="0"
     fit-margin-bottom="0"
     inkscape:window-width="463"
     inkscape:window-height="401"
     inkscape:window-x="156"
     inkscape:window-y="168"
     inkscape:window-maximized="0" />
  <metadata
     id="metadata4855">
    <rdf:RDF>
      <cc:Work
         rdf:about="">
        <dc:format>image/svg+xml</dc:format>
        <dc:type
           rdf:resource="http://purl.org/dc/dcmitype/StillImage" />
        <dc:title></dc:title>
      </cc:Work>
    </rdf:RDF>
  </metadata>
  <g
     inkscape:label="Layer 1"
     inkscape:groupmode="layer"
     id="layer1"
     transform="translate(-183.1043,-392.06416)">
    <path
       style="fill:#ffffff;fill-opacity:1;stroke:none;display:inline"
       d="m 296.4481,392.06416 -113.3438,196.3125 0.031,0 69.9688,0 43.3437,-75.0937 0,24.9687 0,50.125 69.9688,0 31.8125,-55.0937 2.5,11.9375 9.0625,43.1562 69.9687,0 8.5313,-14.7812 3.75,6.4375 4.8125,8.3437 69.9687,0 -43.5312,-75.4062 -60.5938,-16.25 -8.0937,14.0312 -14.4375,-50.125 -60.5938,-16.25 -18.9375,32.8125 -3.5937,-68.9062 -60.5937,-16.2188 z"
       id="path4060"
       inkscape:connector-curvature="0" />
    <g
       style="font-size:100.39474487px;font-style:normal;font-variant:normal;font-weight:bold;font-stretch:normal;line-height:125%;letter-spacing:0px;word-spacing:0px;fill:#ffffff;fill-opacity:1;stroke:none;display:inline;font-family:Roboto;-inkscape-font-specification:Roboto Bold"
       id="text4080">
      <path
         d="m 215.9553,671.67981 c -0.65365,-1.27454 -1.12752,-2.85955 -1.42161,-4.75502 -1.43798,1.60135 -3.24358,2.95759 -5.41681,4.06873 -2.17328,1.11114 -4.82858,1.66671 -7.96589,1.66671 -2.5491,0 -4.92661,-0.39217 -7.13253,-1.1765 -2.20596,-0.78434 -4.11777,-1.87914 -5.73545,-3.2844 -1.61769,-1.40526 -2.88406,-3.08014 -3.79911,-5.02464 -0.91506,-1.94449 -1.37259,-4.07689 -1.37259,-6.39723 0,-2.77783 0.51472,-5.24521 1.54416,-7.40215 1.02943,-2.15689 2.57359,-3.987 4.63247,-5.49033 2.05887,-1.50328 4.61612,-2.6471 7.67177,-3.43147 3.05561,-0.7843 6.60962,-1.17646 10.66204,-1.1765 l 6.32369,0 0,-3.03929 c -3e-5,-2.45101 -0.62913,-4.41184 -1.8873,-5.88251 -1.25824,-1.47058 -3.24358,-2.20589 -5.95604,-2.20593 -2.38571,4e-5 -4.25667,0.57195 -5.61289,1.71573 -1.35626,1.14386 -2.03438,2.71252 -2.03436,4.706 l -14.16704,0 c 0,-2.2876 0.53106,-4.46086 1.59318,-6.51978 1.06211,-2.05883 2.57359,-3.85626 4.53443,-5.39229 1.96082,-1.53594 4.33016,-2.75329 7.10803,-3.65206 2.77783,-0.89866 5.88248,-1.34802 9.31396,-1.34807 3.07195,5e-5 5.91516,0.39222 8.52964,1.1765 2.6144,0.78439 4.86936,1.95272 6.76488,3.50499 1.89543,1.55238 3.37422,3.49687 4.43638,5.83349 1.06208,2.3367 1.59313,5.05735 1.59318,8.16197 l 0,22.45156 c -5e-5,1.50332 0.049,2.85139 0.14707,4.04422 0.098,1.19285 0.22871,2.27131 0.39216,3.23538 0.16336,0.96408 0.37578,1.83012 0.63727,2.59811 0.2614,0.76799 0.57186,1.49513 0.9314,2.18142 l 0,0.83336 z m -11.71599,-9.8532 c 1.20915,1e-5 2.32846,-0.14705 3.35793,-0.44118 1.02941,-0.29412 1.95263,-0.67811 2.76968,-1.15199 0.81698,-0.47386 1.52778,-1.02126 2.1324,-1.6422 0.60456,-0.62092 1.0866,-1.25819 1.44612,-1.91182 l 0,-9.11788 -5.83348,0 c -1.86282,2e-5 -3.48051,0.20428 -4.85307,0.61276 -1.37261,0.40853 -2.50008,0.98044 -3.38244,1.71573 -0.88239,0.73534 -1.53601,1.60137 -1.96083,2.59811 -0.42487,0.99677 -0.63729,2.0834 -0.63728,3.25989 -10e-6,1.76476 0.62092,3.21905 1.8628,4.36285 1.24184,1.14383 2.94123,1.71574 5.09817,1.71573 z"
         style=""
         id="path4870" />
      <path
         d="m 258.40737,650.40475 -5.09817,5.09817 0,16.17689 -14.16703,0 0,-75.29606 14.16703,0 0,41.71676 2.74517,-3.5295 13.57878,-15.93178 17.01024,0 -19.16716,22.10841 20.83387,30.93217 -16.27493,0 z"
         style=""
         id="path4872" />
      <path
         d="m 312.13425,650.40475 -5.09817,5.09817 0,16.17689 -14.16704,0 0,-75.29606 14.16704,0 0,41.71676 2.74516,-3.5295 13.57879,-15.93178 17.01024,0 -19.16716,22.10841 20.83387,30.93217 -16.27493,0 z"
         style=""
         id="path4874" />
      <path
         d="m 377.33201,671.67981 c -0.65365,-1.27454 -1.12752,-2.85955 -1.42161,-4.75502 -1.43798,1.60135 -3.24358,2.95759 -5.41681,4.06873 -2.17328,1.11114 -4.82858,1.66671 -7.96589,1.66671 -2.5491,0 -4.92661,-0.39217 -7.13253,-1.1765 -2.20596,-0.78434 -4.11777,-1.87914 -5.73545,-3.2844 -1.61769,-1.40526 -2.88406,-3.08014 -3.79911,-5.02464 -0.91506,-1.94449 -1.37259,-4.07689 -1.37259,-6.39723 0,-2.77783 0.51472,-5.24521 1.54416,-7.40215 1.02943,-2.15689 2.57359,-3.987 4.63247,-5.49033 2.05887,-1.50328 4.61612,-2.6471 7.67177,-3.43147 3.05561,-0.7843 6.60962,-1.17646 10.66204,-1.1765 l 6.32369,0 0,-3.03929 c -3e-5,-2.45101 -0.62914,-4.41184 -1.8873,-5.88251 -1.25824,-1.47058 -3.24358,-2.20589 -5.95604,-2.20593 -2.38571,4e-5 -4.25667,0.57195 -5.61289,1.71573 -1.35626,1.14386 -2.03438,2.71252 -2.03437,4.706 l -14.16703,0 c 0,-2.2876 0.53106,-4.46086 1.59318,-6.51978 1.06211,-2.05883 2.57359,-3.85626 4.53443,-5.39229 1.96082,-1.53594 4.33016,-2.75329 7.10803,-3.65206 2.77783,-0.89866 5.88248,-1.34802 9.31396,-1.34807 3.07195,5e-5 5.91516,0.39222 8.52963,1.1765 2.61441,0.78439 4.86937,1.95272 6.76489,3.50499 1.89542,1.55238 3.37422,3.49687 4.43638,5.83349 1.06207,2.3367 1.59313,5.05735 1.59318,8.16197 l 0,22.45156 c -5e-5,1.50332 0.049,2.85139 0.14706,4.04422 0.098,1.19285 0.22872,2.27131 0.39217,3.23538 0.16336,0.96408 0.37578,1.83012 0.63727,2.59811 0.2614,0.76799 0.57186,1.49513 0.9314,2.18142 l 0,0.83336 z m -11.71599,-9.8532 c 1.20915,1e-5 2.32846,-0.14705 3.35793,-0.44118 1.02941,-0.29412 1.95263,-0.67811 2.76968,-1.15199 0.81698,-0.47386 1.52778,-1.02126 2.1324,-1.6422 0.60456,-0.62092 1.0866,-1.25819 1.44612,-1.91182 l 0,-9.11788 -5.83348,0 c -1.86282,2e-5 -3.48051,0.20428 -4.85307,0.61276 -1.37261,0.40853 -2.50009,0.98044 -3.38244,1.71573 -0.8824,0.73534 -1.53601,1.60137 -1.96084,2.59811 -0.42486,0.99677 -0.63728,2.0834 -0.63727,3.25989 -1e-5,1.76476 0.62092,3.21905 1.8628,4.36285 1.24184,1.14383 2.94123,1.71574 5.09817,1.71573 z"
         style=""
         id="path4876" />
      <path
         d="m 401.25419,664.71885 c -10e-6,-1.07846 0.18791,-2.08338 0.56374,-3.01479 0.37582,-0.93138 0.91505,-1.73206 1.61769,-2.40202 0.70262,-0.66994 1.54415,-1.201 2.52457,-1.59318 0.98041,-0.39215 2.07521,-0.58823 3.2844,-0.58825 1.20917,2e-5 2.31214,0.1961 3.30891,0.58825 0.99674,0.39218 1.84643,0.92324 2.54909,1.59318 0.70261,0.66996 1.24184,1.47064 1.61769,2.40202 0.3758,0.93141 0.56371,1.93633 0.56374,3.01479 -3e-5,1.07846 -0.18794,2.07522 -0.56374,2.99027 -0.37585,0.91506 -0.91508,1.70756 -1.61769,2.37751 -0.70266,0.66995 -1.55235,1.19284 -2.54909,1.56867 -0.99677,0.37583 -2.09974,0.56374 -3.30891,0.56374 -1.20919,0 -2.30399,-0.18791 -3.2844,-0.56374 -0.98042,-0.37583 -1.82195,-0.89872 -2.52457,-1.56867 -0.70264,-0.66995 -1.24187,-1.46245 -1.61769,-2.37751 -0.37583,-0.91505 -0.56375,-1.91181 -0.56374,-2.99027 z"
         style=""
         id="path4878" />
      <path
         d="m 442.77487,618.63923 0.44119,6.12761 c 1.83009,-2.2876 4.03603,-4.04418 6.61782,-5.26975 2.58174,-1.22547 5.45763,-1.83823 8.62767,-1.83828 2.51637,5e-5 4.80401,0.35137 6.86293,1.05395 2.05883,0.70268 3.82358,1.85467 5.29425,3.45597 1.47058,1.6014 2.60623,3.69295 3.40695,6.27467 0.80062,2.58181 1.20096,5.75182 1.20101,9.51005 l 0,33.72636 -14.16703,0 0,-33.8244 c -4e-5,-1.69936 -0.18795,-3.10462 -0.56374,-4.2158 -0.37586,-1.1111 -0.92326,-1.99347 -1.6422,-2.64712 -0.71901,-0.65357 -1.60138,-1.11927 -2.64713,-1.3971 -1.04581,-0.27774 -2.25499,-0.41663 -3.62754,-0.41668 -2.09158,5e-5 -3.88084,0.45757 -5.36779,1.37259 -1.48698,0.91509 -2.68799,2.15696 -3.60303,3.72558 l 0,37.40293 -14.16703,0 0,-53.04058 z"
         style=""
         id="path4880" />
      <path
         d="m 510.42366,672.66023 c -4.11778,0 -7.80251,-0.66996 -11.05421,-2.00986 -3.25173,-1.3399 -6.01324,-3.17001 -8.28453,-5.49034 -2.27131,-2.32031 -4.00337,-5.04096 -5.19621,-8.16197 -1.19284,-3.12098 -1.78926,-6.46257 -1.78926,-10.02477 l 0,-1.91181 c 0,-4.01968 0.58008,-7.70442 1.74024,-11.05421 1.16015,-3.34972 2.81052,-6.23378 4.95111,-8.65218 2.14056,-2.41832 4.73867,-4.30562 7.79432,-5.66191 3.05561,-1.3562 6.4789,-2.03432 10.26987,-2.03437 3.8236,5e-5 7.18969,0.62915 10.0983,1.8873 2.90853,1.25826 5.3514,3.02301 7.32862,5.29426 1.97713,2.27134 3.46409,5.00834 4.4609,8.21099 0.9967,3.20274 1.49508,6.76491 1.49513,10.68655 l 0,6.02957 -33.77538,0 c 0.22875,1.73209 0.69445,3.30076 1.3971,4.706 0.70261,1.40528 1.60133,2.60629 2.69615,3.60304 1.09477,0.99677 2.37749,1.77293 3.84814,2.32849 1.47059,0.55558 3.12096,0.83336 4.9511,0.83335 2.58174,1e-5 4.96742,-0.48202 7.15705,-1.44611 2.18956,-0.96407 4.06869,-2.4592 5.6374,-4.48541 l 6.96096,7.79432 c -0.84974,1.20919 -1.91186,2.38569 -3.18635,3.5295 -1.27459,1.14382 -2.7779,2.16509 -4.50992,3.0638 -1.73211,0.89872 -3.68478,1.61769 -5.858,2.15692 -2.17329,0.53923 -4.5508,0.80885 -7.13253,0.80885 z m -1.61769,-43.53054 c -1.53602,5e-5 -2.88409,0.26966 -4.04422,0.80885 -1.16019,0.53927 -2.15694,1.29092 -2.99028,2.25496 -0.83337,0.96411 -1.51149,2.1161 -2.03436,3.45597 -0.52291,1.33994 -0.89874,2.8269 -1.12748,4.4609 l 19.70639,0 0,-1.12748 c -0.0327,-1.40523 -0.23697,-2.71245 -0.61276,-3.92167 -0.37587,-1.20915 -0.94778,-2.25492 -1.71573,-3.13734 -0.76803,-0.88233 -1.74845,-1.56862 -2.94126,-2.05887 -1.19287,-0.49017 -2.6063,-0.73527 -4.2403,-0.73532 z"
         style=""
         id="path4882" />
      <path
         d="m 557.28761,605.59967 0,13.03956 9.06886,0 0,10.39242 -9.06886,0 0,26.47127 c -2e-5,1.11116 0.11436,2.02621 0.34315,2.74517 0.22874,0.71899 0.57188,1.28273 1.02943,1.69122 0.45751,0.40852 1.02125,0.6863 1.69122,0.83336 0.66993,0.14707 1.46243,0.2206 2.37752,0.22059 0.84966,1e-5 1.62583,-0.0327 2.32849,-0.098 0.7026,-0.0653 1.31536,-0.14705 1.83828,-0.24511 l 0,10.73557 c -1.17653,0.35949 -2.45924,0.66179 -3.84814,0.90689 -1.38895,0.2451 -2.96579,0.36766 -4.73051,0.36766 -2.32034,0 -4.4119,-0.28596 -6.27467,-0.85787 -1.86281,-0.57191 -3.45599,-1.47879 -4.77954,-2.72066 -1.32357,-1.24185 -2.34484,-2.85954 -3.0638,-4.85306 -0.71898,-1.99351 -1.07847,-4.39553 -1.07846,-7.20607 l 0,-27.99092 -7.7453,0 0,-10.39242 7.7453,0 0,-13.03956 z"
         style=""
         id="path4884" />
    </g>
  </g>
</svg>
