<?xml version="1.0" encoding="UTF-8" standalone="no"?>
<!-- Created with Inkscape (http://www.inkscape.org/) -->

<svg
   xmlns:dc="http://purl.org/dc/elements/1.1/"
   xmlns:cc="http://creativecommons.org/ns#"
   xmlns:rdf="http://www.w3.org/1999/02/22-rdf-syntax-ns#"
   xmlns:svg="http://www.w3.org/2000/svg"
   xmlns="http://www.w3.org/2000/svg"
   xmlns:sodipodi="http://sodipodi.sourceforge.net/DTD/sodipodi-0.dtd"
   xmlns:inkscape="http://www.inkscape.org/namespaces/inkscape"
   width="383.71881"
   height="196.3125"
   id="svg5066"
   version="1.1"
   inkscape:version="0.48.5 r10040"
   sodipodi:docname="AkkaNetLogo.Normal.NoText.Inverted.svg">
  <defs
     id="defs5068" />
  <sodipodi:namedview
     id="base"
     pagecolor="#ffffff"
     bordercolor="#666666"
     borderopacity="1.0"
     inkscape:pageopacity="0.0"
     inkscape:pageshadow="2"
     inkscape:zoom="0.35"
     inkscape:cx="191.8594"
     inkscape:cy="98.156247"
     inkscape:document-units="px"
     inkscape:current-layer="layer1"
     showgrid="false"
     fit-margin-top="0"
     fit-margin-left="0"
     fit-margin-right="0"
     fit-margin-bottom="0"
     inkscape:window-width="463"
     inkscape:window-height="401"
     inkscape:window-x="104"
     inkscape:window-y="112"
     inkscape:window-maximized="0" />
  <metadata
     id="metadata5071">
    <rdf:RDF>
      <cc:Work
         rdf:about="">
        <dc:format>image/svg+xml</dc:format>
        <dc:type
           rdf:resource="http://purl.org/dc/dcmitype/StillImage" />
        <dc:title></dc:title>
      </cc:Work>
    </rdf:RDF>
  </metadata>
  <g
     inkscape:label="Layer 1"
     inkscape:groupmode="layer"
     id="layer1"
     transform="translate(-183.1406,-434.20593)">
    <path
       style="fill:#ffffff;fill-opacity:1;stroke:none;display:inline"
       d="m 296.4844,434.20593 -113.3438,196.3125 0.031,0 69.9688,0 103.9375,-180.09375 -60.5937,-16.21875 z m 60.5937,16.21875 -60.5937,129.96875 0,43.125 63.8437,-110.59375 -3.25,-62.5 z m 22.5313,36.09375 -83.125,144 69.9687,0 73.75,-127.75 -60.5937,-16.25 z m 60.5937,16.25 -39.4375,84.59375 8,38.03125 44.5313,-77.15625 -13.0938,-45.46875 z m 22.5313,36.09375 -52.9063,91.65625 69.9688,0 43.5312,-75.40625 -60.5937,-16.25 z m 60.5937,16.25 -31.25,67.0625 4.8125,8.34375 69.9688,0 -43.5313,-75.40625 z"
       id="path4006"
       inkscape:connector-curvature="0" />
  </g>
</svg>
