<?xml version="1.0" encoding="UTF-8" standalone="no"?>
<!-- Created with Inkscape (http://www.inkscape.org/) -->

<svg
   xmlns:dc="http://purl.org/dc/elements/1.1/"
   xmlns:cc="http://creativecommons.org/ns#"
   xmlns:rdf="http://www.w3.org/1999/02/22-rdf-syntax-ns#"
   xmlns:svg="http://www.w3.org/2000/svg"
   xmlns="http://www.w3.org/2000/svg"
   xmlns:sodipodi="http://sodipodi.sourceforge.net/DTD/sodipodi-0.dtd"
   xmlns:inkscape="http://www.inkscape.org/namespaces/inkscape"
   width="383.78439"
   height="76.276466"
   id="svg5145"
   version="1.1"
   inkscape:version="0.48.5 r10040"
   sodipodi:docname="New document 40">
  <defs
     id="defs5147" />
  <sodipodi:namedview
     id="base"
     pagecolor="#ffffff"
     bordercolor="#666666"
     borderopacity="1.0"
     inkscape:pageopacity="0.0"
     inkscape:pageshadow="2"
     inkscape:zoom="0.35"
     inkscape:cx="144.03505"
     inkscape:cy="160.99537"
     inkscape:document-units="px"
     inkscape:current-layer="layer1"
     showgrid="false"
     fit-margin-top="0"
     fit-margin-left="0"
     fit-margin-right="0"
     fit-margin-bottom="0"
     inkscape:window-width="463"
     inkscape:window-height="401"
     inkscape:window-x="208"
     inkscape:window-y="224"
     inkscape:window-maximized="0" />
  <metadata
     id="metadata5150">
    <rdf:RDF>
      <cc:Work
         rdf:about="">
        <dc:format>image/svg+xml</dc:format>
        <dc:type
           rdf:resource="http://purl.org/dc/dcmitype/StillImage" />
        <dc:title></dc:title>
      </cc:Work>
    </rdf:RDF>
  </metadata>
  <g
     inkscape:label="Layer 1"
     inkscape:groupmode="layer"
     id="layer1"
     transform="translate(-230.96495,-617.08108)">
    <g
       style="font-size:100.39474487px;font-style:normal;font-variant:normal;font-weight:bold;font-stretch:normal;line-height:125%;letter-spacing:0px;word-spacing:0px;fill:#424242;fill-opacity:1;stroke:none;display:inline;font-family:Roboto;-inkscape-font-specification:Roboto Bold"
       id="text3309">
      <path
         d="m 263.80893,692.37714 c -0.65364,-1.27455 -1.12751,-2.85955 -1.4216,-4.75503 -1.43798,1.60135 -3.24358,2.9576 -5.41681,4.06873 -2.17328,1.11114 -4.82858,1.66671 -7.96589,1.66671 -2.5491,0 -4.92661,-0.39216 -7.13254,-1.1765 -2.20595,-0.78433 -4.11776,-1.87913 -5.73544,-3.2844 -1.61769,-1.40526 -2.88406,-3.08013 -3.79912,-5.02463 -0.91506,-1.94449 -1.37258,-4.07689 -1.37258,-6.39723 0,-2.77783 0.51472,-5.24521 1.54416,-7.40215 1.02943,-2.15689 2.57359,-3.987 4.63247,-5.49034 2.05886,-1.50328 4.61612,-2.64709 7.67177,-3.43146 3.05561,-0.7843 6.60962,-1.17647 10.66204,-1.1765 l 6.32369,0 0,-3.03929 c -4e-5,-2.45101 -0.62914,-4.41184 -1.88731,-5.88251 -1.25823,-1.47058 -3.24357,-2.20589 -5.95603,-2.20594 -2.38571,5e-5 -4.25667,0.57196 -5.61289,1.71573 -1.35626,1.14386 -2.03439,2.71253 -2.03437,4.70601 l -14.16703,0 c 0,-2.2876 0.53106,-4.46086 1.59318,-6.51978 1.06211,-2.05883 2.57359,-3.85626 4.53443,-5.3923 1.96082,-1.53593 4.33016,-2.75328 7.10803,-3.65205 2.77783,-0.89866 5.88248,-1.34802 9.31396,-1.34807 3.07195,5e-5 5.91515,0.39222 8.52963,1.1765 2.61441,0.78438 4.86937,1.95271 6.76488,3.50499 1.89543,1.55237 3.37423,3.49687 4.43639,5.83348 1.06207,2.33671 1.59313,5.05736 1.59318,8.16198 l 0,22.45156 c -5e-5,1.50332 0.049,2.85139 0.14706,4.04422 0.098,1.19285 0.22872,2.27131 0.39217,3.23538 0.16335,0.96408 0.37578,1.83011 0.63727,2.5981 0.2614,0.768 0.57186,1.49514 0.9314,2.18143 l 0,0.83336 z m -11.71598,-9.8532 c 1.20915,10e-6 2.32846,-0.14705 3.35793,-0.44119 1.0294,-0.29411 1.95263,-0.67811 2.76967,-1.15199 0.81699,-0.47385 1.52779,-1.02125 2.13241,-1.6422 0.60456,-0.62091 1.0866,-1.25818 1.44612,-1.91181 l 0,-9.11788 -5.83349,0 c -1.86282,2e-5 -3.4805,0.20427 -4.85306,0.61276 -1.37261,0.40853 -2.50009,0.98044 -3.38244,1.71573 -0.8824,0.73533 -1.53601,1.60137 -1.96084,2.59811 -0.42486,0.99677 -0.63729,2.0834 -0.63727,3.25988 -2e-5,1.76477 0.62091,3.21905 1.8628,4.36286 1.24184,1.14383 2.94122,1.71574 5.09817,1.71573 z"
         id="path5163"
         inkscape:connector-curvature="0" />
      <path
         d="m 306.26101,671.10208 -5.09817,5.09817 0,16.17689 -14.16703,0 0,-75.29606 14.16703,0 0,41.71676 2.74517,-3.5295 13.57878,-15.93179 17.01024,0 -19.16716,22.10842 20.83387,30.93217 -16.27493,0 z"
         id="path5165"
         inkscape:connector-curvature="0" />
      <path
         d="m 359.98788,671.10208 -5.09817,5.09817 0,16.17689 -14.16703,0 0,-75.29606 14.16703,0 0,41.71676 2.74517,-3.5295 13.57878,-15.93179 17.01025,0 -19.16717,22.10842 20.83388,30.93217 -16.27493,0 z"
         id="path5167"
         inkscape:connector-curvature="0" />
      <path
         d="m 425.18564,692.37714 c -0.65364,-1.27455 -1.12751,-2.85955 -1.4216,-4.75503 -1.43798,1.60135 -3.24358,2.9576 -5.41681,4.06873 -2.17328,1.11114 -4.82858,1.66671 -7.96589,1.66671 -2.5491,0 -4.92661,-0.39216 -7.13254,-1.1765 -2.20595,-0.78433 -4.11776,-1.87913 -5.73544,-3.2844 -1.61769,-1.40526 -2.88407,-3.08013 -3.79912,-5.02463 -0.91506,-1.94449 -1.37258,-4.07689 -1.37258,-6.39723 0,-2.77783 0.51471,-5.24521 1.54416,-7.40215 1.02943,-2.15689 2.57358,-3.987 4.63247,-5.49034 2.05886,-1.50328 4.61612,-2.64709 7.67177,-3.43146 3.05561,-0.7843 6.60962,-1.17647 10.66203,-1.1765 l 6.3237,0 0,-3.03929 c -4e-5,-2.45101 -0.62914,-4.41184 -1.88731,-5.88251 -1.25823,-1.47058 -3.24357,-2.20589 -5.95603,-2.20594 -2.38571,5e-5 -4.25667,0.57196 -5.61289,1.71573 -1.35627,1.14386 -2.03439,2.71253 -2.03437,4.70601 l -14.16703,0 c 0,-2.2876 0.53105,-4.46086 1.59318,-6.51978 1.06211,-2.05883 2.57359,-3.85626 4.53443,-5.3923 1.96082,-1.53593 4.33016,-2.75328 7.10803,-3.65205 2.77782,-0.89866 5.88248,-1.34802 9.31396,-1.34807 3.07195,5e-5 5.91515,0.39222 8.52963,1.1765 2.61441,0.78438 4.86937,1.95271 6.76488,3.50499 1.89543,1.55237 3.37423,3.49687 4.43639,5.83348 1.06207,2.33671 1.59313,5.05736 1.59318,8.16198 l 0,22.45156 c -5e-5,1.50332 0.049,2.85139 0.14706,4.04422 0.098,1.19285 0.22872,2.27131 0.39217,3.23538 0.16335,0.96408 0.37578,1.83011 0.63727,2.5981 0.2614,0.768 0.57186,1.49514 0.9314,2.18143 l 0,0.83336 z m -11.71599,-9.8532 c 1.20916,10e-6 2.32847,-0.14705 3.35793,-0.44119 1.02941,-0.29411 1.95264,-0.67811 2.76968,-1.15199 0.81699,-0.47385 1.52779,-1.02125 2.13241,-1.6422 0.60456,-0.62091 1.0866,-1.25818 1.44612,-1.91181 l 0,-9.11788 -5.83349,0 c -1.86282,2e-5 -3.4805,0.20427 -4.85306,0.61276 -1.37261,0.40853 -2.50009,0.98044 -3.38244,1.71573 -0.8824,0.73533 -1.53601,1.60137 -1.96084,2.59811 -0.42486,0.99677 -0.63729,2.0834 -0.63727,3.25988 -2e-5,1.76477 0.62091,3.21905 1.86279,4.36286 1.24185,1.14383 2.94123,1.71574 5.09817,1.71573 z"
         id="path5169"
         inkscape:connector-curvature="0" />
      <path
         d="m 449.10783,685.41617 c -10e-6,-1.07845 0.1879,-2.08338 0.56374,-3.01478 0.37582,-0.93139 0.91505,-1.73206 1.61769,-2.40202 0.70262,-0.66994 1.54414,-1.201 2.52457,-1.59318 0.98041,-0.39215 2.07521,-0.58824 3.2844,-0.58825 1.20917,10e-6 2.31213,0.1961 3.30891,0.58825 0.99674,0.39218 1.84643,0.92324 2.54908,1.59318 0.70262,0.66996 1.24184,1.47063 1.61769,2.40202 0.37581,0.9314 0.56372,1.93633 0.56374,3.01478 -2e-5,1.07847 -0.18793,2.07522 -0.56374,2.99028 -0.37585,0.91505 -0.91507,1.70756 -1.61769,2.37751 -0.70265,0.66995 -1.55234,1.19284 -2.54908,1.56867 -0.99678,0.37582 -2.09974,0.56374 -3.30891,0.56374 -1.20919,0 -2.30399,-0.18792 -3.2844,-0.56374 -0.98043,-0.37583 -1.82195,-0.89872 -2.52457,-1.56867 -0.70264,-0.66995 -1.24187,-1.46246 -1.61769,-2.37751 -0.37584,-0.91506 -0.56375,-1.91181 -0.56374,-2.99028 z"
         id="path5171"
         inkscape:connector-curvature="0" />
      <path
         d="m 490.62851,639.33655 0.44119,6.12761 c 1.83009,-2.28759 4.03603,-4.04417 6.61782,-5.26974 2.58174,-1.22547 5.45762,-1.83823 8.62767,-1.83828 2.51637,5e-5 4.80401,0.35137 6.86292,1.05394 2.05884,0.70269 3.82359,1.85468 5.29426,3.45598 1.47058,1.60139 2.60623,3.69295 3.40695,6.27467 0.80062,2.5818 1.20096,5.75182 1.20101,9.51005 l 0,33.72636 -14.16703,0 0,-33.82441 c -4e-5,-1.69935 -0.18795,-3.10461 -0.56374,-4.21579 -0.37586,-1.1111 -0.92326,-1.99348 -1.6422,-2.64713 -0.71901,-0.65357 -1.60138,-1.11927 -2.64713,-1.39709 -1.04581,-0.27774 -2.25499,-0.41664 -3.62754,-0.41668 -2.09159,4e-5 -3.88085,0.45757 -5.36779,1.37259 -1.48699,0.91509 -2.688,2.15695 -3.60303,3.72558 l 0,37.40293 -14.16703,0 0,-53.04059 z"
         id="path5173"
         inkscape:connector-curvature="0" />
      <path
         d="m 558.27729,693.35755 c -4.11777,0 -7.80251,-0.66995 -11.0542,-2.00985 -3.25174,-1.3399 -6.01324,-3.17001 -8.28453,-5.49034 -2.27131,-2.32031 -4.00338,-5.04097 -5.19621,-8.16197 -1.19285,-3.12098 -1.78927,-6.46257 -1.78926,-10.02477 l 0,-1.91182 c -10e-6,-4.01968 0.58007,-7.70441 1.74024,-11.0542 1.16015,-3.34972 2.81052,-6.23378 4.95111,-8.65219 2.14056,-2.41831 4.73866,-4.30561 7.79431,-5.66191 3.05562,-1.35619 6.4789,-2.03431 10.26988,-2.03436 3.82359,5e-5 7.18969,0.62915 10.0983,1.8873 2.90853,1.25825 5.3514,3.023 7.32862,5.29425 1.97712,2.27135 3.46409,5.00834 4.4609,8.211 0.9967,3.20273 1.49508,6.76491 1.49513,10.68655 l 0,6.02957 -33.77538,0 c 0.22875,1.73209 0.69445,3.30075 1.3971,4.706 0.70261,1.40528 1.60132,2.60629 2.69614,3.60303 1.09478,0.99677 2.37749,1.77294 3.84814,2.3285 1.4706,0.55558 3.12097,0.83336 4.95111,0.83335 2.58173,10e-6 4.96741,-0.48203 7.15705,-1.44612 2.18956,-0.96406 4.06869,-2.45919 5.6374,-4.4854 l 6.96096,7.79431 c -0.84974,1.20919 -1.91186,2.38569 -3.18635,3.52951 -1.27459,1.14382 -2.7779,2.16509 -4.50992,3.0638 -1.73212,0.89872 -3.68478,1.61769 -5.858,2.15692 -2.17329,0.53923 -4.5508,0.80884 -7.13254,0.80884 z m -1.61768,-43.53053 c -1.53602,4e-5 -2.88409,0.26966 -4.04423,0.80884 -1.16018,0.53927 -2.15694,1.29093 -2.99027,2.25496 -0.83337,0.96412 -1.5115,2.11611 -2.03437,3.45598 -0.5229,1.33993 -0.89873,2.8269 -1.12748,4.46089 l 19.7064,0 0,-1.12748 c -0.0327,-1.40523 -0.23698,-2.71245 -0.61277,-3.92166 -0.37586,-1.20915 -0.94777,-2.25493 -1.71573,-3.13734 -0.76802,-0.88234 -1.74844,-1.56863 -2.94125,-2.05888 -1.19287,-0.49016 -2.6063,-0.73527 -4.2403,-0.73531 z"
         id="path5175"
         inkscape:connector-curvature="0" />
      <path
         d="m 605.14125,626.297 0,13.03955 9.06886,0 0,10.39243 -9.06886,0 0,26.47127 c -3e-5,1.11115 0.11436,2.02621 0.34314,2.74517 0.22874,0.71898 0.57189,1.28272 1.02944,1.69122 0.45751,0.40852 1.02124,0.6863 1.69122,0.83335 0.66993,0.14708 1.46243,0.22061 2.37751,0.2206 0.84967,10e-6 1.62583,-0.0327 2.32849,-0.0981 0.70261,-0.0653 1.31537,-0.14705 1.83829,-0.2451 l 0,10.73557 c -1.17653,0.35949 -2.45925,0.66178 -3.84814,0.90689 -1.38895,0.2451 -2.96579,0.36765 -4.73051,0.36765 -2.32035,0 -4.4119,-0.28595 -6.27468,-0.85786 -1.8628,-0.57191 -3.45598,-1.4788 -4.77953,-2.72066 -1.32358,-1.24186 -2.34484,-2.85955 -3.06381,-4.85307 -0.71898,-1.9935 -1.07846,-4.39552 -1.07846,-7.20606 l 0,-27.99092 -7.74529,0 0,-10.39243 7.74529,0 0,-13.03955 z"
         id="path5177"
         inkscape:connector-curvature="0" />
    </g>
  </g>
</svg>
