<?xml version="1.0" encoding="UTF-8" standalone="no"?>
<!-- Created with Inkscape (http://www.inkscape.org/) -->

<svg
   xmlns:dc="http://purl.org/dc/elements/1.1/"
   xmlns:cc="http://creativecommons.org/ns#"
   xmlns:rdf="http://www.w3.org/1999/02/22-rdf-syntax-ns#"
   xmlns:svg="http://www.w3.org/2000/svg"
   xmlns="http://www.w3.org/2000/svg"
   xmlns:sodipodi="http://sodipodi.sourceforge.net/DTD/sodipodi-0.dtd"
   xmlns:inkscape="http://www.inkscape.org/namespaces/inkscape"
   width="383.78442"
   height="280.58902"
   id="svg4409"
   version="1.1"
   inkscape:version="0.48.5 r10040"
   sodipodi:docname="New document 7">
  <defs
     id="defs4411" />
  <sodipodi:namedview
     id="base"
     pagecolor="#ffffff"
     bordercolor="#666666"
     borderopacity="1.0"
     inkscape:pageopacity="0.0"
     inkscape:pageshadow="2"
     inkscape:zoom="0.7"
     inkscape:cx="160.56798"
     inkscape:cy="31.89571"
     inkscape:document-units="px"
     inkscape:current-layer="svg4409"
     showgrid="false"
     fit-margin-top="0"
     fit-margin-left="0"
     fit-margin-right="0"
     fit-margin-bottom="0"
     inkscape:window-width="943"
     inkscape:window-height="651"
     inkscape:window-x="308"
     inkscape:window-y="160"
     inkscape:window-maximized="0" />
  <metadata
     id="metadata4414">
    <rdf:RDF>
      <cc:Work
         rdf:about="">
        <dc:format>image/svg+xml</dc:format>
        <dc:type
           rdf:resource="http://purl.org/dc/dcmitype/StillImage" />
        <dc:title></dc:title>
      </cc:Work>
    </rdf:RDF>
  </metadata>
  <g
     inkscape:label="Layer 1"
     inkscape:groupmode="layer"
     id="layer1"
     transform="translate(-308.10779,-297.78197)">
    <path
       style="fill:#0386bf;fill-opacity:1;stroke:none;display:inline"
       d="m 565.17029,366.34447 -41.9375,72.65625 11.5625,55.09375 44.8125,-77.625 -14.4375,-50.125 z"
       id="path3978"
       inkscape:connector-curvature="0"
       inkscape:export-filename="C:\Users\2921\Desktop\text3309.png"
       inkscape:export-xdpi="90"
       inkscape:export-ydpi="90" />
    <path
       style="fill:#0386bf;fill-opacity:1;stroke:none;display:inline"
       d="m 648.29529,418.68822 -35,60.59375 8.5625,14.8125 69.9688,0 -43.5313,-75.40625 z"
       id="path3987"
       inkscape:connector-curvature="0"
       inkscape:export-filename="C:\Users\2921\Desktop\text3309.png"
       inkscape:export-xdpi="90"
       inkscape:export-ydpi="90" />
    <path
       style="fill:#0386bf;fill-opacity:1;stroke:none;display:inline"
       d="m 482.04529,314.00072 -60.5937,105 0,75.09375 64.1875,-111.1875 -3.5938,-68.90625 z"
       id="path4004"
       inkscape:connector-curvature="0"
       inkscape:export-filename="C:\Users\2921\Desktop\text3309.png"
       inkscape:export-xdpi="90"
       inkscape:export-ydpi="90" />
    <path
       style="fill:#026f9f;fill-opacity:1;stroke:none;display:inline"
       d="m 482.04529,314.00072 -60.5937,105 0,24.96875 60.5937,-129.96875 z"
       id="path4047"
       inkscape:connector-curvature="0"
       inkscape:export-filename="C:\Users\2921\Desktop\text3309.png"
       inkscape:export-xdpi="90"
       inkscape:export-ydpi="90" />
    <path
       style="fill:#026f9f;fill-opacity:1;stroke:none;display:inline"
       d="m 565.17029,366.34447 -41.9375,72.65625 2.5,11.9375 39.4375,-84.59375 z"
       id="path4062"
       inkscape:connector-curvature="0"
       inkscape:export-filename="C:\Users\2921\Desktop\text3309.png"
       inkscape:export-xdpi="90"
       inkscape:export-ydpi="90" />
    <path
       style="fill:#026f9f;fill-opacity:1;stroke:none;display:inline"
       d="m 648.29529,418.68822 -35,60.59375 3.75,6.46875 31.25,-67.0625 z"
       id="path4067"
       inkscape:connector-curvature="0"
       inkscape:export-filename="C:\Users\2921\Desktop\text3309.png"
       inkscape:export-xdpi="90"
       inkscape:export-ydpi="90" />
    <path
       style="fill:#31b0f7;fill-opacity:1;stroke:none;display:inline"
       d="m 421.45159,297.78197 -113.3438,196.3125 0.031,0 69.9688,0 103.9375,-180.09375 -60.5937,-16.21875 z"
       id="path3951"
       inkscape:connector-curvature="0"
       inkscape:export-filename="C:\Users\2921\Desktop\text3309.png"
       inkscape:export-xdpi="90"
       inkscape:export-ydpi="90" />
    <path
       style="fill:#31b0f7;fill-opacity:1;stroke:none;display:inline"
       d="m 504.57659,350.09447 -83.125,144 69.9687,0 73.75,-127.75 -60.5937,-16.25 z"
       id="path3955"
       inkscape:connector-curvature="0"
       inkscape:export-filename="C:\Users\2921\Desktop\text3309.png"
       inkscape:export-xdpi="90"
       inkscape:export-ydpi="90" />
    <path
       style="fill:#31b0f7;fill-opacity:1;stroke:none;display:inline"
       d="m 587.70159,402.43822 -52.9063,91.65625 69.9687,0 43.5313,-75.40625 -60.5937,-16.25 z"
       id="path3976"
       inkscape:connector-curvature="0"
       inkscape:export-xdpi="90"
       inkscape:export-ydpi="90"
       inkscape:export-filename="C:\Users\2921\Desktop\text3309.png" />
    <g
       style="font-size:100.39474487px;font-style:normal;font-variant:normal;font-weight:bold;font-stretch:normal;line-height:125%;letter-spacing:0px;word-spacing:0px;fill:#424242;fill-opacity:1;stroke:none;display:inline;font-family:Roboto;-inkscape-font-specification:Roboto Bold"
       id="text3309">
      <path
         d="m 340.95182,577.39056 c -0.65365,-1.27454 -1.12752,-2.85954 -1.42161,-4.75502 -1.43798,1.60135 -3.24358,2.95759 -5.4168,4.06873 -2.17329,1.11114 -4.82858,1.66671 -7.9659,1.66671 -2.5491,0 -4.92661,-0.39217 -7.13253,-1.1765 -2.20595,-0.78433 -4.11777,-1.87913 -5.73544,-3.2844 -1.6177,-1.40526 -2.88407,-3.08014 -3.79912,-5.02464 -0.91506,-1.94448 -1.37259,-4.07689 -1.37259,-6.39722 0,-2.77783 0.51472,-5.24521 1.54416,-7.40215 1.02943,-2.1569 2.57359,-3.98701 4.63247,-5.49034 2.05887,-1.50328 4.61612,-2.6471 7.67177,-3.43146 3.05561,-0.7843 6.60962,-1.17647 10.66204,-1.1765 l 6.32369,0 0,-3.0393 c -3e-5,-2.451 -0.62913,-4.41183 -1.8873,-5.8825 -1.25824,-1.47058 -3.24358,-2.2059 -5.95604,-2.20594 -2.3857,4e-5 -4.25667,0.57195 -5.61289,1.71573 -1.35626,1.14386 -2.03438,2.71253 -2.03436,4.706 l -14.16704,0 c 0,-2.2876 0.53106,-4.46085 1.59318,-6.51977 1.06211,-2.05883 2.57359,-3.85626 4.53443,-5.3923 1.96083,-1.53593 4.33017,-2.75328 7.10803,-3.65205 2.77783,-0.89866 5.88248,-1.34802 9.31397,-1.34808 3.07194,6e-5 5.91515,0.39222 8.52963,1.1765 2.61441,0.78439 4.86936,1.95272 6.76488,3.505 1.89543,1.55237 3.37422,3.49686 4.43639,5.83348 1.06207,2.3367 1.59313,5.05736 1.59317,8.16198 l 0,22.45155 c -4e-5,1.50332 0.049,2.8514 0.14707,4.04423 0.098,1.19285 0.22871,2.2713 0.39216,3.23537 0.16336,0.96409 0.37578,1.83012 0.63728,2.59811 0.26139,0.768 0.57186,1.49514 0.93139,2.18143 l 0,0.83335 z m -11.71599,-9.85319 c 1.20915,10e-6 2.32846,-0.14705 3.35793,-0.44119 1.02941,-0.29411 1.95263,-0.67811 2.76968,-1.15199 0.81698,-0.47386 1.52778,-1.02126 2.13241,-1.6422 0.60455,-0.62092 1.08659,-1.25819 1.44611,-1.91181 l 0,-9.11788 -5.83348,0 c -1.86282,2e-5 -3.48051,0.20427 -4.85307,0.61276 -1.3726,0.40853 -2.50008,0.98044 -3.38244,1.71573 -0.88239,0.73533 -1.536,1.60137 -1.96083,2.5981 -0.42487,0.99678 -0.63729,2.08341 -0.63727,3.25989 -2e-5,1.76477 0.62091,3.21905 1.86279,4.36286 1.24184,1.14383 2.94123,1.71574 5.09817,1.71573 z"
         style=""
         id="path4466" />
      <path
         d="m 383.40389,556.11551 -5.09817,5.09817 0,16.17688 -14.16703,0 0,-75.29605 14.16703,0 0,41.71676 2.74517,-3.52951 13.57878,-15.93178 17.01024,0 -19.16716,22.10841 20.83387,30.93217 -16.27493,0 z"
         style=""
         id="path4468" />
      <path
         d="m 437.13077,556.11551 -5.09817,5.09817 0,16.17688 -14.16704,0 0,-75.29605 14.16704,0 0,41.71676 2.74517,-3.52951 13.57878,-15.93178 17.01024,0 -19.16716,22.10841 20.83387,30.93217 -16.27493,0 z"
         style=""
         id="path4470" />
      <path
         d="m 502.32853,577.39056 c -0.65365,-1.27454 -1.12752,-2.85954 -1.42161,-4.75502 -1.43798,1.60135 -3.24358,2.95759 -5.41681,4.06873 -2.17328,1.11114 -4.82858,1.66671 -7.96589,1.66671 -2.5491,0 -4.92661,-0.39217 -7.13253,-1.1765 -2.20596,-0.78433 -4.11777,-1.87913 -5.73545,-3.2844 -1.61769,-1.40526 -2.88406,-3.08014 -3.79911,-5.02464 -0.91506,-1.94448 -1.37259,-4.07689 -1.37259,-6.39722 0,-2.77783 0.51472,-5.24521 1.54416,-7.40215 1.02943,-2.1569 2.57359,-3.98701 4.63247,-5.49034 2.05887,-1.50328 4.61612,-2.6471 7.67177,-3.43146 3.05561,-0.7843 6.60962,-1.17647 10.66204,-1.1765 l 6.32369,0 0,-3.0393 c -3e-5,-2.451 -0.62913,-4.41183 -1.8873,-5.8825 -1.25824,-1.47058 -3.24358,-2.2059 -5.95604,-2.20594 -2.38571,4e-5 -4.25667,0.57195 -5.61289,1.71573 -1.35626,1.14386 -2.03438,2.71253 -2.03436,4.706 l -14.16704,0 c 0,-2.2876 0.53106,-4.46085 1.59318,-6.51977 1.06211,-2.05883 2.57359,-3.85626 4.53443,-5.3923 1.96082,-1.53593 4.33016,-2.75328 7.10803,-3.65205 2.77783,-0.89866 5.88248,-1.34802 9.31396,-1.34808 3.07195,6e-5 5.91516,0.39222 8.52964,1.1765 2.6144,0.78439 4.86936,1.95272 6.76488,3.505 1.89543,1.55237 3.37422,3.49686 4.43638,5.83348 1.06208,2.3367 1.59313,5.05736 1.59318,8.16198 l 0,22.45155 c -5e-5,1.50332 0.049,2.8514 0.14707,4.04423 0.098,1.19285 0.22871,2.2713 0.39216,3.23537 0.16336,0.96409 0.37578,1.83012 0.63727,2.59811 0.2614,0.768 0.57186,1.49514 0.9314,2.18143 l 0,0.83335 z m -11.71599,-9.85319 c 1.20915,10e-6 2.32846,-0.14705 3.35793,-0.44119 1.02941,-0.29411 1.95263,-0.67811 2.76968,-1.15199 0.81698,-0.47386 1.52778,-1.02126 2.1324,-1.6422 0.60456,-0.62092 1.0866,-1.25819 1.44612,-1.91181 l 0,-9.11788 -5.83348,0 c -1.86282,2e-5 -3.48051,0.20427 -4.85307,0.61276 -1.37261,0.40853 -2.50008,0.98044 -3.38244,1.71573 -0.88239,0.73533 -1.53601,1.60137 -1.96083,2.5981 -0.42487,0.99678 -0.63729,2.08341 -0.63728,3.25989 -10e-6,1.76477 0.62092,3.21905 1.8628,4.36286 1.24184,1.14383 2.94123,1.71574 5.09817,1.71573 z"
         style=""
         id="path4472" />
      <path
         d="m 526.25071,570.4296 c 0,-1.07845 0.18791,-2.08338 0.56374,-3.01478 0.37582,-0.93139 0.91505,-1.73206 1.61769,-2.40203 0.70262,-0.66993 1.54415,-1.20099 2.52457,-1.59317 0.98041,-0.39216 2.07521,-0.58824 3.2844,-0.58825 1.20917,10e-6 2.31214,0.19609 3.30891,0.58825 0.99674,0.39218 1.84644,0.92324 2.54909,1.59317 0.70261,0.66997 1.24184,1.47064 1.61769,2.40203 0.3758,0.9314 0.56371,1.93633 0.56374,3.01478 -3e-5,1.07847 -0.18794,2.07522 -0.56374,2.99027 -0.37585,0.91506 -0.91508,1.70757 -1.61769,2.37752 -0.70265,0.66995 -1.55235,1.19284 -2.54909,1.56866 -0.99677,0.37583 -2.09974,0.56374 -3.30891,0.56374 -1.20919,0 -2.30399,-0.18791 -3.2844,-0.56374 -0.98042,-0.37582 -1.82195,-0.89871 -2.52457,-1.56866 -0.70264,-0.66995 -1.24187,-1.46246 -1.61769,-2.37752 -0.37583,-0.91505 -0.56374,-1.9118 -0.56374,-2.99027 z"
         style=""
         id="path4474" />
      <path
         d="m 567.7714,524.34998 0.44118,6.12761 c 1.8301,-2.28759 4.03603,-4.04417 6.61782,-5.26974 2.58174,-1.22547 5.45763,-1.83823 8.62767,-1.83829 2.51637,6e-5 4.80401,0.35137 6.86293,1.05395 2.05883,0.70269 3.82358,1.85468 5.29425,3.45597 1.47058,1.6014 2.60623,3.69296 3.40695,6.27468 0.80063,2.5818 1.20096,5.75182 1.20101,9.51004 l 0,33.72636 -14.16703,0 0,-33.8244 c -4e-5,-1.69935 -0.18795,-3.10462 -0.56374,-4.21579 -0.37586,-1.1111 -0.92326,-1.99348 -1.6422,-2.64713 -0.719,-0.65357 -1.60138,-1.11927 -2.64713,-1.39709 -1.0458,-0.27775 -2.25499,-0.41664 -3.62754,-0.41668 -2.09158,4e-5 -3.88084,0.45757 -5.36779,1.37258 -1.48698,0.9151 -2.68799,2.15696 -3.60303,3.72559 l 0,37.40292 -14.16703,0 0,-53.04058 z"
         style=""
         id="path4476" />
      <path
         d="m 635.42018,578.37098 c -4.11778,0 -7.80251,-0.66995 -11.05421,-2.00985 -3.25173,-1.33991 -6.01324,-3.17002 -8.28453,-5.49034 -2.2713,-2.32031 -4.00337,-5.04097 -5.19621,-8.16198 -1.19284,-3.12097 -1.78926,-6.46256 -1.78926,-10.02477 l 0,-1.91181 c 0,-4.01968 0.58008,-7.70441 1.74024,-11.05421 1.16016,-3.34971 2.81052,-6.23377 4.95111,-8.65218 2.14056,-2.41831 4.73867,-4.30562 7.79432,-5.66191 3.05561,-1.35619 6.4789,-2.03431 10.26987,-2.03437 3.8236,6e-5 7.18969,0.62916 10.0983,1.88731 2.90853,1.25825 5.3514,3.023 7.32862,5.29425 1.97713,2.27135 3.46409,5.00834 4.4609,8.211 0.99671,3.20273 1.49508,6.76491 1.49514,10.68655 l 0,6.02956 -33.77538,0 c 0.22874,1.7321 0.69444,3.30076 1.39709,4.70601 0.70261,1.40528 1.60133,2.60629 2.69615,3.60303 1.09477,0.99677 2.37749,1.77294 3.84814,2.32849 1.4706,0.55558 3.12096,0.83337 4.9511,0.83336 2.58174,10e-6 4.96742,-0.48203 7.15705,-1.44612 2.18956,-0.96406 4.06869,-2.4592 5.6374,-4.48541 l 6.96097,7.79432 c -0.84975,1.20919 -1.91187,2.38569 -3.18636,3.5295 -1.27459,1.14383 -2.77789,2.1651 -4.50992,3.06381 -1.73211,0.89872 -3.68478,1.61769 -5.858,2.15692 -2.17329,0.53923 -4.5508,0.80884 -7.13253,0.80884 z m -1.61769,-43.53053 c -1.53601,4e-5 -2.88409,0.26965 -4.04422,0.80884 -1.16019,0.53927 -2.15694,1.29093 -2.99028,2.25496 -0.83337,0.96412 -1.51149,2.11611 -2.03436,3.45597 -0.52291,1.33994 -0.89874,2.82691 -1.12748,4.4609 l 19.70639,0 0,-1.12748 c -0.0327,-1.40523 -0.23697,-2.71245 -0.61276,-3.92167 -0.37587,-1.20914 -0.94778,-2.25492 -1.71573,-3.13733 -0.76803,-0.88234 -1.74845,-1.56863 -2.94126,-2.05888 -1.19287,-0.49017 -2.6063,-0.73527 -4.2403,-0.73531 z"
         style=""
         id="path4478" />
      <path
         d="m 682.28413,511.31043 0,13.03955 9.06886,0 0,10.39243 -9.06886,0 0,26.47127 c -2e-5,1.11115 0.11436,2.02621 0.34315,2.74517 0.22874,0.71898 0.57188,1.28272 1.02943,1.69122 0.45751,0.40851 1.02125,0.6863 1.69122,0.83335 0.66993,0.14707 1.46243,0.2206 2.37752,0.22059 0.84966,10e-6 1.62583,-0.0327 2.32849,-0.098 0.7026,-0.0653 1.31536,-0.14705 1.83828,-0.2451 l 0,10.73557 c -1.17653,0.35949 -2.45924,0.66178 -3.84814,0.90688 -1.38895,0.24511 -2.96579,0.36766 -4.73051,0.36766 -2.32034,0 -4.4119,-0.28595 -6.27467,-0.85786 -1.86281,-0.57191 -3.45599,-1.4788 -4.77954,-2.72066 -1.32357,-1.24186 -2.34484,-2.85955 -3.0638,-4.85307 -0.71898,-1.9935 -1.07847,-4.39552 -1.07846,-7.20607 l 0,-27.99091 -7.7453,0 0,-10.39243 7.7453,0 0,-13.03955 z"
         style=""
         id="path4480" />
    </g>
  </g>
</svg>
